<?xml version="1.0" encoding="UTF-8"?>
<!DOCTYPE svg PUBLIC "-//W3C//DTD SVG 1.1//EN" "http://www.w3.org/Graphics/SVG/1.1/DTD/svg11.dtd">
<svg version="1.1" xmlns="http://www.w3.org/2000/svg" xmlns:xlink="http://www.w3.org/1999/xlink" x="0px" y="0px" width="75" height="75" viewBox="0, 0, 75, 75">
  <g id="Layer 1">
    <g>
      <path d="M37.609,74.355 C17.175,74.355 0.609,57.79 0.609,37.355 C0.609,16.921 17.175,0.355 37.609,0.355 C58.044,0.355 74.609,16.921 74.609,37.355 C74.609,57.79 58.044,74.355 37.609,74.355 z" fill="#000000"/>
      <path d="M37.609,74.355 C17.175,74.355 0.609,57.79 0.609,37.355 C0.609,16.921 17.175,0.355 37.609,0.355 C58.044,0.355 74.609,16.921 74.609,37.355 C74.609,57.79 58.044,74.355 37.609,74.355 z" fill-opacity="0" stroke="#000000" stroke-width="1"/>
    </g>
    <text transform="matrix(1, 0, 0, 1, 34.5, 37.5)">
      <tspan x="-24" y="16.909" font-family="GillSans" font-size="50" fill="#FFFFFF">12</tspan>
    </text>
  </g>
  <defs/>
</svg>
