<?xml version="1.0" standalone="no"?>
<!DOCTYPE svg PUBLIC "-//W3C//DTD SVG 1.1//EN" "http://www.w3.org/Graphics/SVG/1.1/DTD/svg11.dtd" >
<svg xmlns="http://www.w3.org/2000/svg">
<metadata></metadata>
<defs>
<font id="akzidenz-grotesk_stdBdIt" horiz-adv-x="1236" >
<font-face units-per-em="2048" ascent="1536" descent="-512" />
<missing-glyph horiz-adv-x="598" />
<glyph unicode="&#xfb01;" horiz-adv-x="1280" d="M37 0l192 870h-145l43 191h149l25 115q19 89 56 151.5t89 96t108 47.5t126 14q38 0 85 -7t84 -15.5t38 -8.5l-45 -209h-92q-80 0 -108 -34t-50 -150h188l-45 -191h-186l-197 -870h-315zM684 0l240 1055h317l-240 -1055h-317zM958 1206l56 240h315l-53 -240h-318z" />
<glyph unicode="&#xfb02;" horiz-adv-x="1280" d="M37 0l192 870h-145l43 191h149l25 115q19 89 56 151.5t89 96t108 47.5t126 14q38 0 85 -7t84 -15.5t38 -8.5l-45 -209h-92q-80 0 -108 -34t-50 -150h188l-45 -191h-186l-197 -870h-315zM686 0l322 1446h317l-324 -1446h-315z" />
<glyph horiz-adv-x="0" />
<glyph horiz-adv-x="682" />
<glyph unicode=" "  horiz-adv-x="598" />
<glyph unicode="&#x09;" horiz-adv-x="598" />
<glyph unicode="&#xa0;" horiz-adv-x="598" />
<glyph unicode="!" horiz-adv-x="598" d="M43 0l74 330h323l-73 -330h-324zM254 500l16 499l103 447h323l-100 -447l-209 -499h-133z" />
<glyph unicode="&#x22;" horiz-adv-x="651" d="M190 899l76 623h211l-211 -623h-76zM522 899l76 623h211l-211 -623h-76z" />
<glyph unicode="#" horiz-adv-x="1366" d="M55 381l45 254h230l59 194h-205l45 254h240l115 363h254l-115 -363h205l112 363h256l-112 -363h186l-45 -254h-223l-58 -194h199l-43 -254h-237l-121 -381h-258l123 381h-203l-121 -381h-254l119 381h-193zM584 635h202l62 194h-205z" />
<glyph unicode="$" horiz-adv-x="1366" d="M27 238l284 170q35 -49 75 -78.5t71.5 -41t91.5 -26.5l88 326q-48 15 -76.5 24t-77.5 29.5t-79.5 39t-68 50t-59 65.5t-36.5 82t-15 103q0 143 92 254q155 188 457 188q58 0 94 -4l33 113h115l-35 -131q87 -19 154.5 -47t112 -62t68 -57.5t48.5 -56.5l-262 -179 q-26 36 -47 58.5t-47 37.5t-43.5 21.5t-55.5 18.5l-82 -293q420 -95 420 -412q0 -119 -69 -225q-42 -65 -106.5 -113t-122.5 -71t-125.5 -36.5t-101.5 -15.5t-65 -2h-67l-58 -198h-118l57 213q-69 11 -132 33t-105.5 46t-82.5 55t-59.5 51.5t-41 44.5t-23.5 26zM569 1008 q0 -25 10.5 -45t24 -32.5t37 -24.5t38.5 -17t40 -12l72 272q-58 0 -105.5 -12.5t-82 -45.5t-34.5 -83zM666 252q21 0 46 3t59.5 13.5t61.5 27.5t46.5 48.5t19.5 71.5q0 31 -12 54t-37.5 40t-45.5 26t-54 21z" />
<glyph unicode="%" horiz-adv-x="1705" d="M109 823q0 64 13.5 138.5t45 154t75.5 144t111 106t146 41.5q64 0 113.5 -21.5t79.5 -55t49.5 -79.5t26.5 -90t7 -90q0 -97 -28.5 -197t-78 -183.5t-127 -137t-165.5 -53.5q-112 0 -190 84.5t-78 238.5zM305 760q0 -109 74 -109q45 0 85.5 60.5t65 143.5t38.5 159.5 t14 118.5q0 60 -21 92t-57 32q-41 0 -80 -55.5t-64 -135.5t-40 -163t-15 -143zM313 0l944 1389h177l-945 -1389h-176zM971 303q0 145 50.5 278.5t141.5 219.5t199 86q64 0 113.5 -21.5t79.5 -55t49.5 -79.5t26.5 -90t7 -90q0 -97 -28.5 -197t-78 -183.5t-127 -137 t-165.5 -53.5q-127 0 -197.5 89.5t-70.5 233.5zM1167 240q0 -109 74 -109q45 0 85.5 60.5t65 143.5t38.5 159t14 118q0 60 -21 92.5t-57 32.5q-41 0 -80 -55.5t-64 -135.5t-40 -163t-15 -143z" />
<glyph unicode="&#x26;" horiz-adv-x="1449" d="M35 362q0 78 26 147.5t68.5 122t104.5 100t125.5 81t140.5 64.5q-3 10 -12 41t-12.5 45t-9 38t-7.5 44t-2 40q0 151 118.5 262t288.5 111q87 0 155.5 -28.5t107.5 -74.5t59 -97t20 -103q0 -109 -84 -205q-35 -39 -84.5 -73.5t-85 -52.5t-100.5 -48q73 -173 127 -276 q57 68 82 106t65 117l232 -94q-47 -94 -87.5 -158t-65.5 -95t-93 -110q55 -55 127 -55q25 0 82 14l-53 -225q-74 -6 -162 -6q-47 0 -84 8.5t-63.5 25.5t-38.5 27.5t-31 30.5q-168 -115 -389 -115q-222 0 -343.5 104.5t-121.5 286.5zM352 391q0 -27 8.5 -54t27.5 -56 t60 -47.5t97 -18.5q26 0 52 5t45 11.5t40.5 17.5t32 17.5t27 18t18.5 12.5q-90 164 -172 365q-70 -30 -119.5 -67t-73 -74t-33.5 -68t-10 -62zM739 1133q0 -35 33 -150q4 2 27 12t38.5 18t39 23.5t38.5 30.5t26 37.5t11 46.5q0 39 -29.5 66.5t-68.5 27.5q-56 0 -85.5 -33.5 t-29.5 -78.5z" />
<glyph unicode="'" horiz-adv-x="319" d="M190 899l76 623h211l-211 -623h-76z" />
<glyph unicode="(" horiz-adv-x="686" d="M63 471q0 397 246 725q194 262 518 451l101 -140q-126 -95 -210.5 -175t-148.5 -165q-112 -150 -172.5 -337t-60.5 -381q0 -381 199 -654l-140 -131q-73 89 -129 170q-203 298 -203 637z" />
<glyph unicode=")" horiz-adv-x="686" d="M-238 -195q127 95 210.5 174t148.5 166q112 152 172.5 339t60.5 380q0 385 -198 654l139 131q85 -101 131 -168q201 -299 201 -637q0 -125 -29 -264q-28 -129 -79.5 -239t-137.5 -224q-101 -136 -225 -244.5t-291 -206.5z" />
<glyph unicode="*" horiz-adv-x="841" d="M160 1174l106 192l191 -104l47 211l215 -50l-47 -211l223 23l23 -219l-213 -23l86 -182l-199 -96l-94 198l-162 -141l-146 166l152 133z" />
<glyph unicode="+" horiz-adv-x="1482" d="M190 532l62 267h373l96 411h340l-96 -411h383l-60 -267h-383l-94 -417h-342l96 417h-375z" />
<glyph unicode="," horiz-adv-x="512" d="M-131 -360l35 149q82 51 111 86t63 125h-123l76 332h325l-51 -228q-42 -192 -147 -302.5t-289 -161.5z" />
<glyph unicode="-" horiz-adv-x="770" d="M53 485l68 293h612l-67 -293h-613z" />
<glyph unicode="." horiz-adv-x="512" d="M-41 0l76 338h323l-75 -338h-324z" />
<glyph unicode="/" horiz-adv-x="937" d="M-143 0l985 1446h291l-983 -1446h-293z" />
<glyph unicode="0" horiz-adv-x="1150" d="M61 479q0 92 17 194.5t50 209t86.5 203t120.5 172t159.5 120.5t197.5 45q54 0 108.5 -13t115 -49.5t106.5 -92.5t76 -150.5t30 -214.5q0 -62 -10 -138.5t-34 -167t-58 -177.5t-86.5 -169t-115.5 -143.5t-149 -99t-183 -37.5q-21 0 -45.5 2.5t-69 14t-84 31t-83.5 58 t-75.5 90t-52.5 132.5t-21 180zM377 381q0 -168 119 -168q53 0 104 58t89 148t67 194t44 199.5t15 162.5q0 207 -123 207q-60 0 -119.5 -85.5t-101.5 -209.5t-68 -262t-26 -244z" />
<glyph unicode="1" horiz-adv-x="1150" d="M242 977l49 223q59 1 98.5 4t90 13.5t87.5 30t77.5 55t74.5 86.5h248l-314 -1389h-329l229 1012q-98 -24 -150 -29.5t-161 -5.5z" />
<glyph unicode="2" horiz-adv-x="1150" d="M-23 0l50 217l596 490q192 158 192 290q0 74 -45.5 124t-118.5 50q-85 0 -137.5 -72t-52.5 -198q0 -35 2 -53l-305 37q2 106 34 201t93 171t159.5 121t221.5 45q68 0 134 -16t126.5 -50t107 -82.5t74 -120t27.5 -155.5q0 -73 -27.5 -144.5t-76 -133t-101.5 -111.5 t-117 -96l-350 -254h571l-59 -260h-998z" />
<glyph unicode="3" horiz-adv-x="1150" d="M-2 414q0 10 1 25t1 20l334 35q-10 -40 -10 -80q0 -80 52.5 -136.5t129.5 -56.5q50 0 88.5 18t59.5 43.5t34 58t17 56t4 43.5q0 72 -44.5 118t-123.5 46q-29 0 -45 -2l45 213q39 -8 75 -8q56 0 98 21.5t65.5 56t34.5 73t11 78.5q0 16 -1 28.5t-9 36.5t-22.5 40t-44 28.5 t-70.5 12.5t-74 -14t-53 -38.5t-33.5 -48.5t-20.5 -53.5t-9 -43t-3 -26.5l-317 37q0 72 36 146.5t99.5 138t163 103.5t215.5 40q89 0 166 -22.5t132.5 -60.5t95.5 -88t59.5 -106.5t19.5 -113.5q0 -115 -68.5 -196.5t-203.5 -122.5q178 -93 178 -293q0 -87 -40.5 -168.5 t-111.5 -144.5t-176 -100.5t-227 -37.5q-128 0 -228 36.5t-159.5 99t-90 141t-30.5 168.5z" />
<glyph unicode="4" horiz-adv-x="1150" d="M-33 340l62 262l704 787h379l-184 -818h202l-53 -231h-203l-77 -340h-324l78 340h-584zM276 571h330l125 514z" />
<glyph unicode="5" horiz-adv-x="1150" d="M18 434l330 15q-2 -48 -2 -54q0 -69 41 -119.5t111 -50.5q86 0 155.5 90t69.5 224q0 55 -15.5 96t-40.5 62.5t-52 31.5t-56 10q-104 0 -184 -123l-279 48l174 725h828l-60 -259h-546l-62 -239q33 23 53 34.5t69 25.5t107 14q81 0 152 -24.5t129 -73.5t91.5 -130 t33.5 -186q0 -71 -22.5 -149t-71 -155t-115.5 -138.5t-165 -99.5t-210 -38q-223 0 -343 126t-120 337z" />
<glyph unicode="6" horiz-adv-x="1150" d="M86 535q0 108 23 224t75.5 236t127.5 214t190.5 154t253.5 60q84 0 151 -24t108 -60.5t71 -88.5t43.5 -98t21.5 -99l-307 -41q-1 3 -4.5 22.5t-6.5 30t-9.5 30t-16 31.5t-23 25t-33.5 19t-44 6q-53 0 -102 -37t-82.5 -94.5t-55.5 -120t-29 -119.5q27 31 45 48.5t51 41.5 t74 35.5t90 11.5q145 0 253 -113.5t108 -283.5q0 -68 -19.5 -144t-62.5 -153.5t-102.5 -139t-148 -100.5t-191.5 -39q-90 0 -165 32t-127 86.5t-88 127.5t-52.5 154t-16.5 166zM414 414q0 -92 39 -143.5t88 -51.5q71 0 128.5 89t57.5 208q0 13 -1 27.5t-7.5 47t-18.5 55.5 t-38 42t-62 19q-54 0 -98.5 -51.5t-66 -117.5t-21.5 -124z" />
<glyph unicode="7" horiz-adv-x="1150" d="M102 0q20 74 35.5 125.5t59 154.5t100.5 205q66 116 154 236.5t148.5 192.5t184.5 214h-661l57 261h1020l-55 -246q-117 -123 -203 -228q-149 -184 -256 -379t-151 -313q-28 -72 -64 -223h-369z" />
<glyph unicode="8" horiz-adv-x="1150" d="M63 381q0 168 90 263t238 120q-1 1 -22.5 13.5t-42 30.5t-44.5 46t-38.5 73.5t-14.5 100.5q0 72 31 141.5t87.5 126.5t145 92t193.5 35q197 0 310.5 -102t113.5 -264q0 -59 -15.5 -108.5t-40 -83.5t-59 -61t-67.5 -42.5t-70 -26.5q39 -21 59 -33.5t53 -40t50.5 -56 t31 -74.5t13.5 -101q0 -85 -34 -165.5t-97.5 -147.5t-166.5 -107.5t-230 -40.5q-66 0 -131 14.5t-127.5 47.5t-110 80t-76.5 116.5t-29 153.5zM387 358q0 -49 17 -84.5t44 -53t51 -25t46 -7.5q73 0 126.5 64t53.5 166q0 41 -13.5 79.5t-51 68.5t-93.5 30q-60 0 -102.5 -40 t-60 -92t-17.5 -106zM532 991q0 -79 37.5 -119.5t81.5 -40.5q67 0 106.5 67t39.5 146q0 71 -32 115.5t-85 44.5q-48 0 -83 -36t-50 -83t-15 -94z" />
<glyph unicode="9" horiz-adv-x="1150" d="M29 338l309 41q3 -20 4 -27t6 -28.5t10.5 -32t16 -27.5t23.5 -25t33 -15t44 -7q58 0 108 40t81.5 101t51 119t27.5 109q-24 -26 -35.5 -38t-39.5 -34.5t-51 -33t-59 -20t-75 -9.5q-161 0 -260.5 116t-99.5 281q0 65 17.5 138.5t59 151.5t100 140.5t149 102.5t198.5 40 q142 0 246 -79.5t153.5 -205.5t49.5 -280q0 -55 -8.5 -123.5t-30 -155t-54.5 -169.5t-86.5 -163.5t-120.5 -141t-163 -97.5t-207 -37q-331 0 -397 369zM455 866q0 -22 3.5 -45.5t14.5 -58t38.5 -56.5t68.5 -22q53 0 98 50.5t67.5 117.5t22.5 127q0 92 -39 142t-88 50 q-74 0 -130 -90t-56 -215z" />
<glyph unicode=":" horiz-adv-x="598" d="M41 0l76 338h323l-73 -338h-326zM207 731l72 324h323l-72 -324h-323z" />
<glyph unicode=";" horiz-adv-x="598" d="M-45 -360l35 149q82 51 111 86t63 125h-123l76 332h325l-51 -228q-42 -192 -147 -302.5t-289 -161.5zM213 727l76 328h321l-75 -328h-322z" />
<glyph unicode="&#x3c;" horiz-adv-x="1482" d="M209 526l76 314l1052 432l-84 -342l-706 -273l579 -297l-75 -317z" />
<glyph unicode="=" horiz-adv-x="1482" d="M186 276l62 269h1077l-61 -269h-1078zM289 721l61 268h1077l-61 -268h-1077z" />
<glyph unicode="&#x3e;" horiz-adv-x="1482" d="M160 37l84 340l706 272l-579 297l75 318l842 -484l-76 -311z" />
<glyph unicode="?" horiz-adv-x="1150" d="M152 1063q122 403 571 403q70 0 138 -12t133.5 -40.5t115.5 -70t80.5 -105t30.5 -140.5q0 -241 -269 -365q-20 -9 -63 -28t-67.5 -30t-61.5 -31.5t-59.5 -39t-44.5 -45.5t-33 -57h-287q7 37 18.5 69t23.5 55.5t36 49t41 41.5t55 41.5t61 40t76.5 46.5t85.5 52 q31 19 49 32t41.5 35t35 48t11.5 57q0 49 -41.5 92t-126.5 43q-38 0 -70.5 -10t-54 -23.5t-40.5 -36.5t-29 -39.5t-19.5 -42t-12 -35.5t-7.5 -28zM209 0l76 324h323l-71 -324h-328z" />
<glyph unicode="@" horiz-adv-x="1724" d="M84 455q0 202 78 388.5t209 321.5t311 216t375 81q269 0 431.5 -156t162.5 -415q0 -113 -28 -225.5t-77.5 -206t-113.5 -166t-140.5 -113.5t-152.5 -41q-75 0 -124 37t-59 103q-119 -140 -262 -140q-126 0 -199 87.5t-73 238.5q0 156 65 297t172.5 226t227.5 85 q72 0 120 -28t91 -95l24 82h185l-80 -325q-70 -290 -70 -342q0 -54 39 -54q49 0 121 88q74 92 118 223t44 257q0 195 -118.5 307t-324.5 112q-153 0 -297.5 -68.5t-251 -181t-171 -265.5t-64.5 -314q0 -133 45.5 -239.5t126 -176t189.5 -106.5t237 -37q369 0 680 299 l90 -127q-88 -78 -137.5 -116t-116.5 -77q-246 -141 -522 -141q-215 0 -386.5 84t-272.5 246t-101 377zM633 487q0 -78 33 -120.5t92 -42.5q62 0 124 58.5t101 151t39 185.5q0 79 -35.5 125.5t-95.5 46.5q-67 0 -127.5 -62.5t-95.5 -156t-35 -185.5z" />
<glyph unicode="A" horiz-adv-x="1449" d="M-141 0l882 1446h406l153 -1446h-352l-18 287h-533l-159 -287h-379zM545 549h368l-39 594z" />
<glyph unicode="B" horiz-adv-x="1449" d="M-2 0l328 1446h651q58 0 111 -8t110 -31.5t98.5 -60.5t68 -99t26.5 -143q0 -133 -76 -220.5t-219 -121.5q117 -50 180 -123t63 -199q0 -89 -31.5 -164t-83 -125t-118.5 -85t-136.5 -50.5t-138.5 -15.5h-833zM410 266h313q242 0 242 201q0 147 -177 147h-301zM547 877h268 q223 0 223 176q0 133 -159 133h-263z" />
<glyph unicode="C" horiz-adv-x="1492" d="M111 633q0 178 60 336t163.5 270.5t249 178t311.5 65.5q245 0 401 -113t215 -297l-346 -78q-66 207 -262 207q-113 0 -207.5 -76.5t-148 -206.5t-53.5 -284q0 -97 25 -172t66 -117t87.5 -63t95.5 -21q112 0 206 85.5t136 199.5l301 -168q-33 -59 -64 -104.5t-90 -108 t-124.5 -103.5t-163 -70.5t-209.5 -29.5q-106 0 -202.5 27t-178 83t-141.5 134.5t-93.5 188t-33.5 237.5z" />
<glyph unicode="D" horiz-adv-x="1536" d="M2 0l328 1446h559q295 0 445.5 -150.5t150.5 -423.5q0 -182 -56.5 -344t-173.5 -288.5t-278 -184.5q-83 -30 -188 -42.5t-279 -12.5h-508zM418 279h157q112 0 192 17t144 73q33 29 64.5 70t65 102.5t54.5 146.5t21 178q0 75 -18 130.5t-46.5 88t-71 52t-84.5 26t-95 6.5 h-183z" />
<glyph unicode="E" horiz-adv-x="1366" d="M0 0l330 1446h1040l-63 -277h-686l-64 -280h662l-60 -264h-661l-80 -351h788l-59 -274h-1147z" />
<glyph unicode="F" horiz-adv-x="1280" d="M0 0l330 1446h1042l-59 -270h-686l-72 -316h662l-64 -276h-661l-134 -584h-358z" />
<glyph unicode="G" horiz-adv-x="1662" d="M109 616q0 132 33.5 258.5t102 237t164 194t227.5 131.5t284 48q101 0 197.5 -24t182.5 -71.5t150 -127.5t90 -183l-344 -90q-16 49 -34 82.5t-48.5 65t-79.5 47.5t-116 16q-100 0 -183 -53t-134.5 -138t-79 -185.5t-27.5 -202.5q0 -169 81 -276t240 -107 q120 0 208.5 70.5t121.5 197.5h-301l61 276h633l-174 -782h-324l27 121q-44 -41 -70 -62t-71.5 -48t-99 -38.5t-121.5 -11.5q-124 0 -231.5 43.5t-189 124.5t-128.5 206.5t-47 280.5z" />
<glyph unicode="H" horiz-adv-x="1536" d="M0 0l330 1446h358l-119 -526h537l119 526h360l-328 -1446h-360l145 641h-538l-146 -641h-358z" />
<glyph unicode="I" horiz-adv-x="641" d="M4 0l324 1446h360l-323 -1446h-361z" />
<glyph unicode="J" horiz-adv-x="811" d="M-117 0l70 301h90q110 0 164.5 37.5t79.5 150.5l215 957h358l-242 -1079q-44 -201 -153 -284t-303 -83h-279z" />
<glyph unicode="K" horiz-adv-x="1492" d="M-2 0l326 1446h342l-134 -594l631 594h430l-632 -578l417 -868h-379l-294 641l-277 -252l-86 -389h-344z" />
<glyph unicode="L" horiz-adv-x="1150" d="M2 0l326 1446h358l-260 -1153h610l-67 -293h-967z" />
<glyph unicode="M" horiz-adv-x="1835" d="M4 0l324 1446h534l25 -948l448 948h543l-326 -1446h-335l258 1118l-541 -1118h-303l-41 1135l-248 -1135h-338z" />
<glyph unicode="N" horiz-adv-x="1449" d="M-2 0l332 1446h356l289 -932l196 932h330l-330 -1446h-352l-284 928l-205 -928h-332z" />
<glyph unicode="O" horiz-adv-x="1622" d="M98 594q0 82 15 167t48 172.5t80.5 167.5t116.5 150.5t152 122t191.5 81.5t230.5 30q156 0 280 -48.5t202.5 -133.5t119.5 -196.5t41 -240.5q0 -76 -14 -158t-45 -170.5t-76.5 -170t-114 -155.5t-152 -128.5t-194.5 -86.5t-238 -32q-166 0 -291 46.5t-201 131.5 t-113.5 198t-37.5 253zM463 578q0 -149 84 -237.5t213 -88.5q87 0 163 39.5t128 103t90 145t55.5 165.5t17.5 163q0 147 -82 234.5t-227 87.5q-85 0 -155.5 -33t-117 -87.5t-81 -119.5t-53 -136.5t-27 -129.5t-8.5 -106z" />
<glyph unicode="P" horiz-adv-x="1409" d="M0 0l326 1446h628q101 0 184 -24.5t148.5 -74.5t102 -135t36.5 -198q0 -110 -34.5 -201.5t-92 -152.5t-134 -103t-157.5 -61t-165 -19h-375l-109 -477h-358zM526 737h271q113 0 189.5 71.5t76.5 192.5q0 53 -18.5 91t-50.5 58t-67.5 29t-76.5 9h-221z" />
<glyph unicode="Q" horiz-adv-x="1662" d="M98 594q0 74 13.5 154t44.5 167.5t76.5 168.5t114 154.5t151.5 128t195 86.5t239 32q93 0 182 -20.5t173.5 -67.5t147.5 -116.5t101.5 -176t38.5 -236.5q0 -159 -45 -289t-127 -266q29 -20 55.5 -36t50.5 -26.5t40.5 -17.5t38 -12t31.5 -7t31.5 -5t26.5 -4l-131 -264 q-66 0 -133.5 26.5t-107 53.5t-105.5 79q-96 -62 -202 -98.5t-259 -36.5q-310 0 -475.5 167t-165.5 462zM463 578q0 -149 83 -237.5t212 -88.5q91 0 168.5 40.5t129.5 105.5t88.5 147t53 164t16.5 159q0 145 -82.5 233.5t-226.5 88.5q-79 0 -146.5 -29.5t-114.5 -80 t-83 -113t-56.5 -132.5t-31 -134.5t-10.5 -122.5z" />
<glyph unicode="R" horiz-adv-x="1449" d="M0 0l328 1446h667q65 0 124.5 -11.5t120 -41t104 -75.5t71 -121t27.5 -171q0 -353 -365 -453l236 -573h-393l-191 518h-252l-119 -518h-358zM539 786h303q55 0 99 16t70 40t43.5 56.5t24 61.5t6.5 58q0 85 -53 124.5t-160 39.5h-243z" />
<glyph unicode="S" horiz-adv-x="1366" d="M-33 297l318 199q5 -14 7 -20t16.5 -35.5t30 -49t45.5 -48.5t65 -46.5t86.5 -31t111.5 -13.5q72 0 124 19.5t76.5 48.5t35 54t10.5 46q0 44 -41.5 81.5t-159.5 78.5l-207 71q-34 12 -67.5 27.5t-80.5 47.5t-81.5 71t-59 98.5t-24.5 128.5q0 84 35.5 163t105 146.5 t188 108.5t269.5 41q123 0 220.5 -22.5t168 -65.5t119.5 -94t92 -121l-299 -174q-15 58 -53 100t-88 63t-97 30t-94 9q-103 0 -153.5 -44t-50.5 -91q0 -23 9.5 -41.5t22.5 -31.5t40.5 -26.5t50 -22.5t63.5 -23l153 -54q197 -68 295.5 -167t98.5 -256q0 -71 -24 -140 t-75 -132.5t-123.5 -111t-177 -76t-227.5 -28.5q-134 0 -247.5 27t-195 74.5t-138.5 105.5t-93 127z" />
<glyph unicode="T" horiz-adv-x="1280" d="M193 1165l71 281h1135l-72 -281h-375l-262 -1165h-362l262 1165h-397z" />
<glyph unicode="U" horiz-adv-x="1492" d="M121 416q0 74 31 225l180 805h362l-196 -881q-15 -60 -15 -110q0 -25 8.5 -52t30 -57.5t67 -50t109.5 -19.5q30 0 56 4.5t60.5 21t62 45t54.5 82t44 126.5l209 891h360l-219 -977q-114 -502 -641 -502q-144 0 -254.5 36t-176.5 99.5t-99 142.5t-33 171z" />
<glyph unicode="V" horiz-adv-x="1366" d="M188 1446h359l96 -1057l526 1057h379l-764 -1446h-422z" />
<glyph unicode="W" horiz-adv-x="2004" d="M203 1446h348v-1040l463 1040h344l-17 -1047l486 1047h352l-721 -1446h-409q2 53 12 466t12 468l-414 -934h-409z" />
<glyph unicode="X" horiz-adv-x="1449" d="M-145 0l700 782l-330 664h387l193 -412l360 412h424l-631 -705l363 -741h-381l-229 483l-414 -483h-442z" />
<glyph unicode="Y" horiz-adv-x="1366" d="M199 1446h358l201 -520l379 520h407l-682 -836l-137 -610h-358l145 655z" />
<glyph unicode="Z" horiz-adv-x="1366" d="M-37 0l68 297l884 866h-696l66 283h1145l-70 -297l-887 -868h748l-64 -281h-1194z" />
<glyph unicode="[" horiz-adv-x="598" d="M-78 -295l436 1890h457l-39 -172h-186l-357 -1546h187l-39 -172h-459z" />
<glyph unicode="\" horiz-adv-x="937" d="M190 1446h293l314 -1446h-289z" />
<glyph unicode="]" horiz-adv-x="598" d="M-207 -293l39 172h186l357 1544h-187l41 172h457l-436 -1888h-457z" />
<glyph unicode="^" horiz-adv-x="1482" d="M143 575l619 871h319l248 -871h-332l-120 572l-369 -572h-365z" />
<glyph unicode="_" horiz-adv-x="1019" d="M-258 -473l53 225h1063l-51 -225h-1065z" />
<glyph unicode="`" horiz-adv-x="641" d="M55 1520h338l193 -332h-193z" />
<glyph unicode="a" d="M20 268q0 132 97 236q27 29 64 51.5t72.5 38.5t92 28t96.5 19t113.5 13t114.5 8.5t127 7.5q20 77 20 112q0 36 -17.5 60t-46.5 33t-46.5 11.5t-36.5 2.5q-151 0 -187 -150q-266 9 -315 11q30 114 89.5 186.5t171 113t280.5 40.5q94 0 167.5 -16t120 -43t77 -63.5 t42.5 -74.5t12 -80q0 -76 -20 -162l-123 -547q-8 -33 -8 -59q0 -11 6 -45h-303q-10 40 -10 49q0 5 3 20.5t8 38t7 39.5q-7 -15 -18.5 -33t-40.5 -45t-65 -48t-96 -36.5t-130 -15.5q-148 0 -233 81.5t-85 217.5zM338 303q0 -14 3 -26.5t13.5 -34t39.5 -34.5t73 -13 q109 0 182 71.5t101 206.5h-31q-199 0 -290 -49t-91 -121z" />
<glyph unicode="b" horiz-adv-x="1280" d="M-6 0l323 1446h322l-107 -463q58 36 91.5 54t85 33t106.5 15q83 0 149.5 -30t107 -76t67.5 -107t37 -118.5t10 -114.5q0 -83 -23 -174t-70.5 -179.5t-112 -159t-155.5 -114t-194 -43.5q-93 0 -180.5 38.5t-116.5 109.5l-29 -117h-311zM410 424q0 -57 18 -100t47 -65.5 t58 -33t57 -10.5q78 0 142.5 66.5t98 165.5t33.5 202q0 94 -49.5 147.5t-126.5 53.5q-72 0 -137.5 -64t-103 -162.5t-37.5 -199.5z" />
<glyph unicode="c" horiz-adv-x="1191" d="M55 471q0 164 78.5 305.5t222 227.5t318.5 86q93 0 170.5 -24t128.5 -60.5t90.5 -87t60.5 -95.5t35 -94l-282 -61q-42 174 -207 174q-65 0 -121.5 -36t-92 -92.5t-55.5 -123.5t-20 -131q0 -24 2.5 -46.5t14.5 -59.5t33.5 -63.5t64 -46.5t100.5 -20q152 0 217 174l287 -88 q-17 -37 -38.5 -72.5t-67 -87t-99 -89t-137.5 -64.5t-180 -27q-226 0 -374.5 140t-148.5 362z" />
<glyph unicode="d" horiz-adv-x="1280" d="M59 416q0 91 22.5 185t69.5 181.5t112 156t158 110t200 41.5q26 0 56.5 -4.5t77 -17t90.5 -44.5t73 -78l112 500h318l-328 -1446h-315l14 74q-128 -103 -283 -103q-162 0 -269.5 118.5t-107.5 326.5zM377 422q0 -211 174 -211q70 0 127.5 41t92 104.5t53 135.5t18.5 141 q0 93 -49 151t-127 58q-71 0 -129 -41.5t-91.5 -106.5t-51 -135.5t-17.5 -136.5z" />
<glyph unicode="e" d="M59 477q0 84 23 169t72 165.5t118 143t169.5 100t217.5 37.5q103 0 190 -29.5t154 -87.5t104.5 -151.5t37.5 -213.5q0 -49 -8 -139h-768q-2 -25 -2 -43q0 -40 11 -76t34.5 -68.5t67 -51.5t102.5 -19q81 0 146.5 41t102.5 115l265 -93q-31 -51 -59 -89t-74 -81.5 t-98 -71.5t-127.5 -46.5t-164.5 -18.5q-224 0 -369 135.5t-145 372.5zM410 670h452v12q0 78 -53.5 133t-146.5 55q-92 0 -154.5 -56t-97.5 -144z" />
<glyph unicode="f" horiz-adv-x="681" d="M37 0l192 870h-145l43 191h149l25 115q19 89 56 151.5t89 96t108 47.5t126 14q38 0 85 -7t84 -15.5t38 -8.5l-45 -209h-92q-80 0 -108 -34t-50 -150h188l-45 -191h-186l-197 -870h-315z" />
<glyph unicode="g" horiz-adv-x="1280" d="M-59 -92q0 16 3 38t6 37.5t3 16.5h328q-11 -43 -11 -61q0 -35 18.5 -60t42 -37t54 -19t45 -8t25.5 -1q50 0 89.5 13.5t66 39t45.5 54.5t31 67.5t19.5 69.5t14.5 69q1 8 2 12q-23 -20 -40 -32t-51.5 -32t-78 -30t-92.5 -10q-178 0 -289 116.5t-111 319.5q0 90 25 180.5 t73.5 170t114 141t153.5 97.5t185 36q28 0 58 -4.5t74.5 -17t88.5 -43t78 -75.5l25 99h305l-225 -994q-36 -159 -103 -257t-186 -149.5t-301 -51.5q-236 0 -360.5 90t-124.5 215zM373 467q0 -54 17.5 -99.5t63 -78.5t113.5 -33q52 0 95 21t70 53.5t48 75.5t31.5 81.5 t17 77.5t8 58t1.5 28q0 18 -3 38.5t-14.5 52t-30 55.5t-55 41.5t-84.5 17.5q-79 0 -144.5 -61.5t-99.5 -150t-34 -177.5z" />
<glyph unicode="h" d="M2 0l330 1446h317l-117 -516q135 149 306 149q142 0 217 -80t75 -192q0 -57 -16 -121l-160 -686h-315l127 561q27 125 27 148q0 57 -32.5 93t-92.5 36q-75 0 -131 -64.5t-82 -181.5l-136 -592h-317z" />
<glyph unicode="i" horiz-adv-x="598" d="M2 0l240 1055h317l-240 -1055h-317zM276 1206l56 240h315l-53 -240h-318z" />
<glyph unicode="j" horiz-adv-x="641" d="M-246 -365l60 254q31 -2 77 -2q64 0 100.5 24t53.5 97l240 1047h317l-248 -1073q-15 -67 -32 -114t-50 -95t-78.5 -76.5t-117.5 -47t-168 -18.5q-56 0 -154 4zM319 1206l56 240h317l-55 -240h-318z" />
<glyph unicode="k" horiz-adv-x="1193" d="M2 0l328 1446h313l-164 -731l393 340h418l-479 -398l287 -657h-340l-193 463l-178 -148l-70 -315h-315z" />
<glyph unicode="l" horiz-adv-x="598" d="M4 0l322 1446h317l-324 -1446h-315z" />
<glyph unicode="m" horiz-adv-x="1878" d="M2 0l242 1055h319l-33 -148q127 178 332 178q192 0 271 -165q123 165 321 165q130 0 217.5 -75t87.5 -205q0 -28 -4.5 -63t-9 -59.5t-10 -50.5t-6.5 -30l-134 -602h-319l137 592q25 112 25 135q0 17 -5.5 34.5t-18 37t-38.5 31.5t-63 12q-82 0 -132.5 -55.5t-78.5 -174.5 l-144 -612h-317l143 627q19 81 19 106q0 34 -13.5 58t-35 34.5t-39 14.5t-33.5 4q-76 0 -133.5 -58.5t-79.5 -150.5l-147 -635h-320z" />
<glyph unicode="n" d="M4 0l240 1055h315l-29 -127q23 26 41.5 43t59.5 47t94 46.5t113 16.5q79 0 138 -26t90.5 -68.5t46.5 -87.5t15 -92q0 -53 -16 -125l-156 -682h-315l137 623q13 78 13 98q0 35 -13.5 60t-35 36.5t-39 16t-33.5 4.5q-47 0 -85.5 -23.5t-63 -63t-39.5 -77t-25 -80.5 l-138 -594h-315z" />
<glyph unicode="o" horiz-adv-x="1280" d="M59 475q0 81 23.5 165t74.5 165.5t122.5 145t175.5 102.5t225 39q144 0 258.5 -57t183 -171t68.5 -268q0 -75 -21.5 -157.5t-70.5 -167t-119 -151t-176.5 -109t-233.5 -42.5q-107 0 -195 30t-145.5 79t-96.5 115.5t-56 136.5t-17 145zM379 463q0 -55 13 -98t34 -70 t49.5 -44.5t56.5 -24.5t58 -7q88 0 153 61.5t94 146.5t29 175q0 48 -11 90t-34.5 77t-64 55t-94.5 20q-119 0 -201 -110.5t-82 -270.5z" />
<glyph unicode="p" horiz-adv-x="1280" d="M-84 -385l328 1440h282l-22 -105q22 25 39.5 40.5t53.5 40.5t84.5 38.5t106.5 13.5q81 0 148 -25.5t114 -69.5t80 -103.5t48.5 -127t15.5 -141.5q0 -82 -20.5 -168.5t-65.5 -172.5t-108 -153t-155.5 -109t-199.5 -42q-87 0 -172.5 34t-128.5 106l-113 -496h-315zM412 422 q0 -51 14 -92t35 -64.5t48 -39.5t51.5 -21.5t47.5 -5.5q75 0 138.5 57.5t99 150t35.5 195.5q0 114 -48.5 185t-136.5 71q-62 0 -112.5 -30.5t-81.5 -77.5t-52 -107t-29.5 -115t-8.5 -106z" />
<glyph unicode="q" horiz-adv-x="1280" d="M63 401q0 51 9 110t30 126t51 130.5t76.5 121.5t102 102t131.5 70t162 26q191 0 299 -143l26 111h310l-326 -1440h-318l101 453q-26 -20 -44.5 -31.5t-55.5 -30t-82 -28t-97 -9.5q-79 0 -144.5 28t-107 73t-70.5 103t-41 115t-12 113zM383 424q0 -215 176 -215 q50 0 92 19.5t71 51t52 72.5t36.5 81t22.5 80.5t12 68t3 45.5q0 58 -17.5 102t-45.5 66.5t-57.5 33.5t-59.5 11q-119 0 -202 -124.5t-83 -291.5z" />
<glyph unicode="r" horiz-adv-x="811" d="M-2 0l240 1055h313l-33 -154q42 63 128 116.5t183 53.5q24 0 64 -4l-64 -274q-251 -4 -340 -136q-23 -35 -36.5 -70.5t-30.5 -109.5l-109 -477h-315z" />
<glyph unicode="s" horiz-adv-x="1110" d="M-45 246l266 131q10 -25 28.5 -49.5t49.5 -50t81 -41t112 -15.5q16 0 36 2t55 10t58 29t23 53q0 38 -32.5 57.5t-109.5 43.5l-108 35q-46 14 -78.5 26.5t-80 39.5t-77.5 57.5t-52 79t-22 106.5q0 48 16.5 94t54 89.5t90.5 76t132.5 52.5t175.5 20q360 0 494 -258 l-238 -117q-42 67 -101.5 104t-158.5 37q-64 0 -99.5 -22.5t-35.5 -57.5q0 -34 26 -51t111 -43l109 -33q67 -20 118.5 -44.5t98.5 -61t72.5 -88t25.5 -115.5t-30.5 -127.5t-90.5 -120t-165.5 -92t-239.5 -35.5q-360 0 -514 279z" />
<glyph unicode="t" horiz-adv-x="724" d="M66 870l43 191h141l67 293h320l-68 -293h183l-43 -191h-183l-100 -440q-14 -63 -14 -92q0 -46 25 -70t93 -24h62l-55 -242q-123 -16 -185 -16q-59 0 -107 12t-87 38t-61 72t-23 109q0 49 16 119l119 534h-143z" />
<glyph unicode="u" d="M74 252q0 50 18 135l150 668h317l-139 -621q-8 -32 -8 -74q0 -53 27.5 -87.5t92.5 -34.5q165 0 218 241l129 576h315l-238 -1055h-315l31 139q-19 -21 -30.5 -33t-42.5 -36.5t-60.5 -39t-75 -26.5t-94.5 -12q-124 0 -209.5 70t-85.5 190z" />
<glyph unicode="v" horiz-adv-x="1067" d="M98 1055h316l43 -721l358 721h352l-616 -1055h-328z" />
<glyph unicode="w" horiz-adv-x="1622" d="M106 1055h291l17 -688l334 688h294l17 -688l323 688h334l-579 -1055h-316l-10 647l-324 -647h-315z" />
<glyph unicode="x" horiz-adv-x="1067" d="M-137 0l493 557l-206 498h331l99 -271l217 271h362l-465 -518l234 -537h-332l-115 319l-264 -319h-354z" />
<glyph unicode="y" horiz-adv-x="1024" d="M-139 -371l55 256q86 -14 109 -14q60 0 96 19.5t67 58.5l-108 1106h319l33 -738l371 738h350l-688 -1172q-32 -55 -57 -90t-63 -71t-80.5 -56t-105 -32.5t-141.5 -12.5q-89 0 -157 8z" />
<glyph unicode="z" horiz-adv-x="1067" d="M-61 0l51 233l643 596h-510l51 226h916l-52 -226l-639 -596h531l-53 -233h-938z" />
<glyph unicode="{" horiz-adv-x="649" d="M20 561l41 178q59 1 94 9.5t61.5 33.5t42 64.5t30.5 109.5l67 304q24 106 47.5 166t66 103t102.5 58t157 15h131l-39 -172h-33q-22 0 -38.5 -2.5t-31 -11t-24 -15t-19.5 -24.5t-15.5 -29.5t-13.5 -39.5t-12 -45t-13 -55l-68 -290q-33 -145 -81 -201t-153 -78 q117 -42 117 -166q0 -69 -16 -137l-58 -246q-24 -108 -24 -135q0 -42 25.5 -65t74.5 -23h23l-39 -170h-131q-111 0 -172.5 57.5t-61.5 161.5q0 48 27 164l63 264q15 66 15 102q0 56 -32 82t-110 33z" />
<glyph unicode="|" horiz-adv-x="524" d="M-88 -293l436 1888h273l-437 -1888h-272z" />
<glyph unicode="}" horiz-adv-x="649" d="M-213 -303l39 172h35q79 0 107 43.5t58 171.5q1 4 1 6l67 291q33 144 81.5 200t154.5 78q-119 42 -119 166q0 61 18 138l56 245q24 108 24 135q0 42 -24.5 65.5t-73.5 23.5h-23l37 170h133q110 0 171 -58t61 -162q0 -47 -27 -163l-61 -265q-17 -74 -17 -102q0 -55 33 -81 t111 -34l-41 -178q-112 -1 -154.5 -42.5t-73.5 -174.5l-69 -303q-19 -85 -37 -138t-45 -96t-65.5 -64.5t-92 -32.5t-131.5 -11h-133z" />
<glyph unicode="~" horiz-adv-x="1482" d="M156 713q93 113 165 157.5t171 44.5q54 0 100.5 -14.5t132.5 -54.5l125 -58q68 -32 98.5 -41.5t61.5 -9.5q66 0 121 34t137 128l94 -268q-95 -110 -176 -156.5t-170 -46.5q-48 0 -101.5 17t-144.5 61l-72 35q-132 63 -209 63q-59 0 -103 -27t-114 -112l-20 -25z" />
<glyph unicode="&#xa1;" horiz-adv-x="598" d="M-49 0l104 449l209 499h133l-18 -499l-103 -449h-325zM209 1120l76 326h323l-73 -326h-326z" />
<glyph unicode="&#xa2;" horiz-adv-x="1150" d="M57 459q0 90 25 179.5t76.5 171t123 144t173 99.5t217.5 37q21 0 45 -3l43 154h114l-47 -172q127 -34 209 -117t123 -223l-282 -61q-15 60 -39.5 96t-77.5 59l-168 -600q51 0 90.5 16t65 46.5t37 50.5t25.5 52q2 5 3 7l287 -88q-31 -73 -79.5 -132.5t-102.5 -97 t-116 -62.5t-117 -35.5t-107 -10.5q-33 0 -56 2l-55 -200h-119l62 221q-116 35 -198 110.5t-118.5 166t-36.5 190.5zM381 463q0 -157 100 -213l166 590q-66 -4 -120 -47.5t-84 -104t-46 -120t-16 -105.5z" />
<glyph unicode="&#xa3;" horiz-adv-x="1536" d="M-4 219q0 118 89.5 184t217.5 66q25 0 53 -3t54 -7.5t45 -9t37.5 -9t19.5 -4.5q-5 77 -12 113t-31 106h-301l39 181h190q-22 113 -22 159q0 95 44.5 183t119.5 145q144 107 387 107q134 0 249.5 -42t182.5 -139q44 -65 76 -178l-299 -115q-17 102 -78 158.5t-150 56.5 q-86 0 -140 -59.5t-54 -146.5q0 -45 24 -131h336l-43 -179h-225q31 -108 31 -157q0 -33 -9 -65.5t-36 -100.5q36 -25 59.5 -39t57.5 -26.5t63 -12.5q36 0 63 15t42.5 35t27 54t15.5 58t9 61h306q-9 -76 -23.5 -139t-44.5 -133t-72 -118.5t-110 -80t-154 -31.5 q-88 0 -160.5 32t-220.5 128q-3 -2 -48.5 -37.5t-80.5 -57.5t-103 -44.5t-138 -22.5t-124 19.5t-83 47.5t-47.5 64.5t-23.5 63.5t-5 51zM209 211q0 -34 30.5 -53t57.5 -19q45 0 94 33t80 78q-100 43 -152 43q-54 0 -82 -25t-28 -57z" />
<glyph unicode="&#xa4;" horiz-adv-x="1433" d="M16 268l185 156q-54 120 -54 221q0 210 127 365l-141 170l223 190l142 -168q134 70 282 70q87 0 156 -21.5t151 -74.5l185 155l172 -207l-180 -155q49 -106 49 -205q0 -217 -127 -387l145 -172l-227 -191l-146 172q-73 -37 -135 -52t-139 -15q-94 0 -160.5 21t-148.5 77 l-185 -156zM457 664q0 -110 69.5 -183t175.5 -73q126 0 215 93.5t89 225.5q0 113 -70 184.5t-182 71.5q-126 0 -211.5 -92t-85.5 -227z" />
<glyph unicode="&#xa5;" horiz-adv-x="1366" d="M123 362l51 211h324l14 70l-23 59h-286l49 209h154l-207 512h358l199 -516l381 516h407l-424 -512h148l-54 -209h-268l-84 -102l-4 -27h332l-53 -211h-328l-84 -362h-358l82 362h-326z" />
<glyph unicode="&#xa6;" horiz-adv-x="524" d="M-90 -295l188 821h275l-189 -821h-274zM156 770l190 823h272l-188 -823h-274z" />
<glyph unicode="&#xa7;" horiz-adv-x="1280" d="M10 -70l191 187q40 -32 63.5 -48.5t66.5 -41t91.5 -36t103.5 -11.5q56 0 98 22t42 64q0 17 -6.5 31.5t-21.5 28.5t-30.5 25.5t-43 25.5t-49 24t-58.5 27.5t-62 29.5q-42 21 -60 30.5t-59.5 34t-63 42.5t-52.5 49t-46.5 60.5t-27.5 70t-12 84.5q0 73 28 135t75.5 104.5 t95.5 70.5t100 46q-17 31 -25 48.5t-16 49t-8 64.5q0 137 116 234.5t316 97.5q75 0 142 -12.5t111 -27t96.5 -46t76.5 -49t73 -56.5l-188 -176q-191 141 -322 141q-46 0 -78 -19.5t-32 -57.5q0 -40 32.5 -65.5t129.5 -70.5q77 -37 134.5 -70t111 -74.5t87.5 -84t54 -96 t20 -113.5q0 -126 -78 -218t-198 -140q47 -103 47 -166q0 -59 -29 -117.5t-83.5 -109t-146 -82t-204.5 -31.5q-79 0 -151.5 14.5t-120.5 32.5t-99 49t-73.5 49t-57.5 47zM342 709q0 -27 11.5 -51t25.5 -40.5t45.5 -37.5t53 -33t65.5 -35q104 -53 258 -143q29 14 46 23.5 t43 30.5t39 49.5t13 64.5q0 22 -7.5 42.5t-15.5 35.5t-28 32.5t-31 26t-39.5 24.5t-37.5 20.5t-40 20.5q-121 59 -251 135q-31 -14 -52.5 -27t-46.5 -33.5t-38 -47t-13 -57.5z" />
<glyph unicode="&#xa8;" horiz-adv-x="641" d="M-119 1184l51 237h330l-49 -237h-332zM373 1184l53 237h334l-53 -237h-334z" />
<glyph unicode="&#xa9;" horiz-adv-x="1685" d="M135 723q0 200 97 367.5t264.5 264.5t367.5 97q196 0 364 -96t266.5 -261t98.5 -358q0 -157 -56 -295t-152.5 -236t-232.5 -155t-290 -57q-200 0 -367 96.5t-263.5 264t-96.5 368.5zM236 721q0 -176 83 -323.5t227 -232.5t316 -85q169 0 314.5 85.5t231 231t85.5 314.5 q0 184 -82.5 334t-227 235.5t-321.5 85.5q-170 0 -314.5 -86.5t-228 -235t-83.5 -323.5zM422 653q0 227 142 382t349 155q122 0 202 -44t167 -161l-174 -145q-47 72 -88.5 103.5t-110.5 31.5q-101 0 -170 -89t-69 -218q0 -98 49.5 -152.5t140.5 -54.5q51 0 88.5 16.5 t98.5 65.5l112 -181q-89 -73 -159 -102t-160 -29q-184 0 -301 118t-117 304z" />
<glyph unicode="&#xaa;" horiz-adv-x="768" d="M133 952q0 75 42.5 126.5t111.5 78.5q39 15 96.5 24t100.5 12.5t134 8.5q13 57 13 70q0 67 -92 67q-31 0 -53.5 -9t-35 -26.5t-17.5 -28t-11 -28.5q-170 4 -195 4q0 12 13 47.5t32 59.5q82 106 293 106q260 0 260 -182q0 -30 -12 -92l-78 -346q-4 -24 -4 -35t4 -27h-190 q-6 15 -6 33q2 19 12 62q-67 -113 -219 -113q-58 0 -99.5 18.5t-62 48.5t-29 59.5t-8.5 61.5zM332 975q0 -34 18.5 -52t63.5 -18q47 0 83.5 22.5t55 56.5t26.5 56.5t11 38.5q-24 0 -48 -1t-65 -7t-70.5 -16t-52 -31t-22.5 -49z" />
<glyph unicode="&#xab;" horiz-adv-x="854" d="M57 502l74 323l361 234l-66 -285l-211 -137l145 -145l-57 -252zM430 496l76 331l362 230l-67 -291l-213 -133l147 -148l-57 -249z" />
<glyph unicode="&#xac;" horiz-adv-x="1482" d="M137 524l62 275h1159l-170 -750h-342l110 475h-819z" />
<glyph unicode="&#xad;" horiz-adv-x="770" d="M53 485l68 293h612l-67 -293h-613z" />
<glyph unicode="&#xae;" horiz-adv-x="1677" d="M135 723q0 200 97 367.5t264.5 264.5t367.5 97q196 0 364 -96t266.5 -261t98.5 -358q0 -157 -56 -295t-152.5 -236t-232.5 -155t-290 -57q-200 0 -367 96.5t-263.5 264t-96.5 368.5zM236 721q0 -176 83 -323.5t227 -232.5t316 -85q169 0 314.5 85.5t231 231t85.5 314.5 q0 184 -82.5 334t-227 235.5t-321.5 85.5q-170 0 -314.5 -86.5t-228 -235t-83.5 -323.5zM463 281l180 905h229q123 0 166 -5.5t90 -27.5q132 -60 132 -231q0 -104 -48 -172t-151 -111l143 -358h-237l-113 323h-109l-65 -323h-217zM784 786h111q72 0 104.5 28t32.5 91 q0 96 -106 96h-101z" />
<glyph unicode="&#xaf;" horiz-adv-x="641" d="M-74 1235l39 188h750l-41 -188h-748z" />
<glyph unicode="&#xb0;" horiz-adv-x="724" d="M106 1174q0 148 102.5 250t250.5 102t250 -102t102 -250q0 -147 -103 -251t-249 -104t-249.5 104.5t-103.5 250.5zM346 1178q0 -46 34.5 -80.5t80.5 -34.5t80 34.5t34 80.5q0 47 -34 79.5t-80 32.5q-48 0 -81.5 -32.5t-33.5 -79.5z" />
<glyph unicode="&#xb1;" horiz-adv-x="1482" d="M61 0l62 268h1098l-62 -268h-1098zM236 766l61 266h373l88 379h340l-88 -379h383l-60 -266h-383l-88 -389h-340l88 389h-374z" />
<glyph unicode="&#xb2;" horiz-adv-x="768" d="M94 516l29 137l377 308q116 95 116 178q0 45 -27 76.5t-73 31.5q-52 0 -86.5 -43t-34.5 -121q0 -25 2 -39l-192 25q0 42 9.5 85.5t32.5 89t58 81t90.5 58t124.5 22.5q66 0 118.5 -17.5t84.5 -45t53.5 -63.5t30 -70t8.5 -68q0 -43 -16.5 -86.5t-37 -73t-53.5 -62.5 t-50 -47t-44 -34l-217 -158h357l-39 -164h-621z" />
<glyph unicode="&#xb3;" horiz-adv-x="768" d="M123 766l2 39l209 22q-6 -24 -6 -49q0 -52 32.5 -87.5t83.5 -35.5q58 0 91.5 41t33.5 97q0 15 -3.5 30t-13.5 32.5t-32.5 28.5t-54.5 11h-31l29 133q24 -6 51 -6q34 1 59.5 15t38 32.5t19.5 42t8.5 36.5t1.5 23q0 42 -27 64t-63 22q-31 0 -55 -13.5t-36 -29t-20 -39.5 t-9.5 -34t-2.5 -23l-199 23q10 70 43 123.5t79.5 83.5t98 44.5t107.5 14.5q75 0 133.5 -24t91 -61.5t48.5 -77t16 -77.5q0 -153 -170 -202q49 -31 80.5 -73t31.5 -110q0 -111 -96 -196.5t-254 -85.5q-84 0 -148 25.5t-98.5 66.5t-51.5 85t-17 89z" />
<glyph unicode="&#xb4;" horiz-adv-x="641" d="M55 1188l193 332h338l-338 -332h-193z" />
<glyph unicode="&#xb5;" horiz-adv-x="1304" d="M-68 -442l334 1497h318l-135 -594q-17 -74 -17 -113q0 -62 30 -101.5t91 -39.5q39 0 73.5 23.5t57.5 57.5t44 85t32.5 92t23.5 92l117 498h322l-164 -740q-6 -24 -6 -49q0 -53 51 -53q23 0 63 16l-53 -229q-98 -25 -172 -25q-83 0 -139.5 38t-67.5 122q-38 -71 -95 -112 t-126 -41q-57 0 -94 29.5t-49 86.5l-119 -540h-320z" />
<glyph unicode="&#xb6;" horiz-adv-x="1306" d="M270 979q0 117 51.5 217.5t143.5 161.5q73 48 163 68t240 20h490l-39 -170h-72l-373 -1618h-182l375 1618h-233l-373 -1618h-182l221 958q-230 111 -230 363z" />
<glyph unicode="&#xb7;" horiz-adv-x="512" d="M84 537l76 337h323l-75 -337h-324z" />
<glyph unicode="&#xb8;" horiz-adv-x="641" d="M98 -430l21 92q29 -4 74 -4q35 0 66.5 15t31.5 44q0 17 -15 28t-40 11q-49 0 -99 -20l15 74l196 225h94l-116 -178q61 10 92 10q53 0 88 -29t35 -78q0 -50 -39 -98q-79 -98 -269 -98q-67 0 -135 6z" />
<glyph unicode="&#xb9;" horiz-adv-x="768" d="M266 1126l31 140q113 3 167 27t101 91h154l-197 -868h-205l144 633q-45 -11 -60.5 -14.5t-41 -6t-64.5 -2.5h-29z" />
<glyph unicode="&#xba;" horiz-adv-x="724" d="M123 1067q0 74 25.5 144t72.5 127.5t122 92.5t167 35q74 0 132.5 -21.5t92.5 -54.5t56 -76t30 -81t8 -76q0 -45 -12.5 -95t-42 -104t-73.5 -96.5t-113.5 -70t-153.5 -27.5q-52 0 -97 12t-76 32t-56 47t-40 55t-25 58t-13.5 54t-3.5 45zM324 1075q0 -13 1 -25.5t8 -38 t19.5 -44t38.5 -33t62 -14.5q48 0 84.5 26t54.5 66.5t26.5 79.5t8.5 75q0 54 -22 88.5t-49.5 46t-57.5 11.5q-75 0 -124.5 -71.5t-49.5 -166.5z" />
<glyph unicode="&#xbb;" horiz-adv-x="854" d="M-4 236l67 290l209 131l-145 150l57 248l248 -258l-74 -330zM373 233l65 287l211 137l-147 144l59 252l246 -260l-74 -324z" />
<glyph unicode="&#xbc;" horiz-adv-x="1705" d="M225 1126l31 140q113 3 167 27t101 91h154l-197 -868h-205l144 633q-45 -11 -60.5 -14.5t-41 -6t-64.5 -2.5h-29zM313 0l944 1389h177l-945 -1389h-176zM922 213l36 164l441 491h237l-114 -512h125l-33 -143h-127l-47 -213h-203l49 213h-364zM1114 356h205l80 322z" />
<glyph unicode="&#xbd;" horiz-adv-x="1705" d="M225 1126l31 140q113 3 167 27t101 91h154l-197 -868h-205l144 633q-45 -11 -60.5 -14.5t-41 -6t-64.5 -2.5h-29zM264 0l944 1389h178l-944 -1389h-178zM920 0l28 137l377 307q117 96 117 179q0 45 -27.5 76.5t-73.5 31.5q-52 0 -86 -42.5t-34 -121.5q0 -25 2 -39 l-193 25q0 42 9.5 85.5t33 89t58 81t90.5 58t125 22.5q81 0 141.5 -26t92 -67.5t46 -84.5t14.5 -86t-16.5 -86t-36.5 -73t-53 -63t-50.5 -47t-43.5 -34l-217 -158h356l-39 -164h-620z" />
<glyph unicode="&#xbe;" horiz-adv-x="1705" d="M53 764l2 39l209 22q-6 -24 -6 -49q0 -52 32.5 -87.5t84.5 -35.5q58 0 91.5 41t33.5 97q0 15 -4 30t-14 32.5t-32.5 28.5t-54.5 11h-30l28 133q24 -6 51 -6q34 1 59.5 15t38 32.5t19.5 42t8.5 36.5t1.5 23q0 42 -27 64t-63 22q-31 0 -55 -13.5t-36 -29t-20 -39.5 t-9.5 -34t-2.5 -23l-198 23q10 70 43 123t79 83.5t98 45t107 14.5q75 0 133.5 -24t91 -61.5t48.5 -77t16 -77.5q0 -153 -170 -202q113 -71 113 -183q0 -111 -96 -196.5t-254 -85.5q-84 0 -148 25.5t-99 66.5t-52 85t-17 89zM367 0l944 1389h178l-944 -1389h-178zM922 213 l36 164l441 491h237l-114 -512h125l-33 -143h-127l-47 -213h-203l49 213h-364zM1114 356h205l80 322z" />
<glyph unicode="&#xbf;" horiz-adv-x="1150" d="M-10 348q0 241 268 365q20 9 63 28t68 30t61.5 31.5t59.5 39t45 45.5t33 57h286q-6 -37 -17 -69t-23 -56t-35.5 -49t-41.5 -41.5t-55.5 -41.5t-62.5 -40t-76.5 -46t-85.5 -52q-31 -19 -49 -32t-41.5 -35t-35 -48t-11.5 -57q0 -49 41.5 -92t126.5 -43q38 0 70.5 10 t54 23.5t40.5 36.5t29 39.5t19.5 42t12 35.5t7.5 28l318 -74q-122 -403 -572 -403q-70 0 -137.5 12t-133.5 40.5t-115.5 70t-80 105t-30.5 140.5zM602 1122l72 324h327l-75 -324h-324z" />
<glyph unicode="&#xc0;" horiz-adv-x="1449" d="M-141 0l882 1446h406l153 -1446h-352l-18 287h-533l-159 -287h-379zM545 549h368l-39 594zM578 1866h383l155 -269h-205z" />
<glyph unicode="&#xc1;" horiz-adv-x="1449" d="M-141 0l882 1446h406l153 -1446h-352l-18 287h-533l-159 -287h-379zM545 549h368l-39 594zM819 1597l156 269h383l-332 -269h-207z" />
<glyph unicode="&#xc2;" horiz-adv-x="1449" d="M-141 0l882 1446h406l153 -1446h-352l-18 287h-533l-159 -287h-379zM524 1602l281 237h393l135 -237h-235l-101 157l-143 -157h-330zM545 549h368l-39 594z" />
<glyph unicode="&#xc3;" horiz-adv-x="1449" d="M-141 0l882 1446h406l153 -1446h-352l-18 287h-533l-159 -287h-379zM545 549h368l-39 594zM567 1579q6 25 15 51.5t31 69.5t48.5 75t70 56t93.5 24q75 0 166 -43l39 -18q59 -29 103 -29q37 0 61.5 24t32.5 58h153q-46 -148 -118 -213t-152 -65q-69 0 -154 47l-53 26 q-55 27 -92 27q-39 0 -59.5 -24.5t-34.5 -65.5h-150z" />
<glyph unicode="&#xc4;" horiz-adv-x="1449" d="M-141 0l882 1446h406l153 -1446h-352l-18 287h-533l-159 -287h-379zM545 549h368l-39 594zM549 1604l51 233h332l-53 -233h-330zM1081 1604l52 233h331l-53 -233h-330z" />
<glyph unicode="&#xc5;" horiz-adv-x="1449" d="M-141 0l882 1446h406l153 -1446h-352l-18 287h-533l-159 -287h-379zM545 549h368l-39 594zM788 1765q0 27 11 55.5t34 56t66 45t100 17.5t100.5 -17.5t66 -45t33.5 -56t11 -55.5q0 -70 -54.5 -122t-156.5 -52q-89 0 -150 48t-61 126zM903 1765q0 -32 23 -54.5t73 -22.5 t72.5 24t22.5 53t-22.5 53.5t-74.5 24.5q-51 0 -72.5 -23.5t-21.5 -54.5z" />
<glyph unicode="&#xc6;" horiz-adv-x="2174" d="M-141 0l1108 1446h1202l-62 -277h-620l-64 -280h598l-57 -264h-600l-78 -349h735l-63 -276h-1088l76 338h-430l-242 -338h-415zM707 600h301l135 604z" />
<glyph unicode="&#xc7;" horiz-adv-x="1492" d="M111 633q0 178 60 336t163.5 270.5t249 178t311.5 65.5q245 0 401 -113t215 -297l-346 -78q-66 207 -262 207q-113 0 -207.5 -76.5t-148 -206.5t-53.5 -284q0 -97 25 -172t66.5 -116.5t87.5 -62t95 -20.5q111 0 203.5 85t138.5 200l301 -168q-33 -59 -64 -104t-90.5 -107 t-125.5 -103t-166.5 -71.5t-216.5 -32.5l-68 -104q61 10 90 10q55 0 90 -29.5t35 -79.5t-39 -98q-79 -98 -268 -98q-70 0 -137 6l20 92q29 -4 74 -4q33 0 65.5 16t32.5 43q0 16 -14.5 27.5t-38.5 11.5q-56 0 -101 -18l17 74l137 161q-114 17 -209.5 68t-168 132.5 t-113.5 199.5t-41 260z" />
<glyph unicode="&#xc8;" horiz-adv-x="1366" d="M0 0l330 1446h1040l-63 -277h-686l-64 -280h662l-60 -264h-661l-80 -351h788l-59 -274h-1147zM492 1866h382l156 -269h-205z" />
<glyph unicode="&#xc9;" horiz-adv-x="1366" d="M0 0l330 1446h1040l-63 -277h-686l-64 -280h662l-60 -264h-661l-80 -351h788l-59 -274h-1147zM702 1597l156 269h383l-332 -269h-207z" />
<glyph unicode="&#xca;" horiz-adv-x="1366" d="M0 0l330 1446h1040l-63 -277h-686l-64 -280h662l-60 -264h-661l-80 -351h788l-59 -274h-1147zM440 1602l281 237h393l135 -237h-235l-101 157l-143 -157h-330z" />
<glyph unicode="&#xcb;" horiz-adv-x="1366" d="M0 0l330 1446h1040l-63 -277h-686l-64 -280h662l-60 -264h-661l-80 -351h788l-59 -274h-1147zM479 1604l51 233h332l-53 -233h-330zM1012 1604l51 233h332l-54 -233h-329z" />
<glyph unicode="&#xcc;" horiz-adv-x="641" d="M4 0l324 1446h360l-323 -1446h-361zM160 1866h383l155 -269h-204z" />
<glyph unicode="&#xcd;" horiz-adv-x="641" d="M4 0l324 1446h360l-323 -1446h-361zM383 1597l156 269h383l-332 -269h-207z" />
<glyph unicode="&#xce;" horiz-adv-x="641" d="M4 0l324 1446h360l-323 -1446h-361zM104 1602l281 237h393l135 -237h-235l-100 157l-144 -157h-330z" />
<glyph unicode="&#xcf;" horiz-adv-x="641" d="M4 0l324 1446h360l-323 -1446h-361zM117 1604l51 233h332l-54 -233h-329zM649 1604l51 233h332l-53 -233h-330z" />
<glyph unicode="&#xd0;" horiz-adv-x="1536" d="M0 0l152 672h-138l45 196h140l131 578h571q103 0 188 -19t144 -51t105 -78.5t73 -96.5t44.5 -109.5t23.5 -113t6 -112.5q0 -113 -27 -228.5t-84 -231.5t-160 -210.5t-239 -142.5q-154 -53 -445 -53h-530zM416 279h159q192 0 285 53q102 60 179 207.5t77 332.5 q0 61 -14 109.5t-33.5 79t-51 52.5t-57 32.5t-62.5 16.5t-55 6.5t-46 0.5h-181l-67 -301h369l-46 -196h-368z" />
<glyph unicode="&#xd1;" horiz-adv-x="1449" d="M-2 0l332 1446h356l289 -932l196 932h330l-330 -1446h-352l-284 928l-205 -928h-332zM567 1579q6 25 15 51.5t31 69.5t48.5 75t70 56t93.5 24q75 0 166 -43l39 -18q59 -29 103 -29q37 0 61.5 24t32.5 58h153q-46 -148 -118 -213t-152 -65q-69 0 -154 47l-53 26 q-55 27 -92 27q-39 0 -59.5 -24.5t-34.5 -65.5h-150z" />
<glyph unicode="&#xd2;" horiz-adv-x="1622" d="M98 594q0 82 15 167t48 172.5t80.5 167.5t116.5 150.5t152 122t191.5 81.5t230.5 30q156 0 280 -48.5t202.5 -133.5t119.5 -196.5t41 -240.5q0 -76 -14 -158t-45 -170.5t-76.5 -170t-114 -155.5t-152 -128.5t-194.5 -86.5t-238 -32q-166 0 -291 46.5t-201 131.5 t-113.5 198t-37.5 253zM463 578q0 -149 84 -237.5t213 -88.5q87 0 163 39.5t128 103t90 145t55.5 165.5t17.5 163q0 147 -82 234.5t-227 87.5q-85 0 -155.5 -33t-117 -87.5t-81 -119.5t-53 -136.5t-27 -129.5t-8.5 -106zM604 1866h383l156 -269h-205z" />
<glyph unicode="&#xd3;" horiz-adv-x="1622" d="M98 594q0 82 15 167t48 172.5t80.5 167.5t116.5 150.5t152 122t191.5 81.5t230.5 30q156 0 280 -48.5t202.5 -133.5t119.5 -196.5t41 -240.5q0 -76 -14 -158t-45 -170.5t-76.5 -170t-114 -155.5t-152 -128.5t-194.5 -86.5t-238 -32q-166 0 -291 46.5t-201 131.5 t-113.5 198t-37.5 253zM463 578q0 -149 84 -237.5t213 -88.5q87 0 163 39.5t128 103t90 145t55.5 165.5t17.5 163q0 147 -82 234.5t-227 87.5q-85 0 -155.5 -33t-117 -87.5t-81 -119.5t-53 -136.5t-27 -129.5t-8.5 -106zM834 1597l155 269h383l-332 -269h-206z" />
<glyph unicode="&#xd4;" horiz-adv-x="1622" d="M98 594q0 82 15 167t48 172.5t80.5 167.5t116.5 150.5t152 122t191.5 81.5t230.5 30q156 0 280 -48.5t202.5 -133.5t119.5 -196.5t41 -240.5q0 -76 -14 -158t-45 -170.5t-76.5 -170t-114 -155.5t-152 -128.5t-194.5 -86.5t-238 -32q-166 0 -291 46.5t-201 131.5 t-113.5 198t-37.5 253zM463 578q0 -149 84 -237.5t213 -88.5q87 0 163 39.5t128 103t90 145t55.5 165.5t17.5 163q0 147 -82 234.5t-227 87.5q-85 0 -155.5 -33t-117 -87.5t-81 -119.5t-53 -136.5t-27 -129.5t-8.5 -106zM584 1602l280 237h393l136 -237h-236l-100 157 l-144 -157h-329z" />
<glyph unicode="&#xd5;" horiz-adv-x="1622" d="M98 594q0 82 15 167t48 172.5t80.5 167.5t116.5 150.5t152 122t191.5 81.5t230.5 30q156 0 280 -48.5t202.5 -133.5t119.5 -196.5t41 -240.5q0 -76 -14 -158t-45 -170.5t-76.5 -170t-114 -155.5t-152 -128.5t-194.5 -86.5t-238 -32q-166 0 -291 46.5t-201 131.5 t-113.5 198t-37.5 253zM463 578q0 -149 84 -237.5t213 -88.5q87 0 163 39.5t128 103t90 145t55.5 165.5t17.5 163q0 147 -82 234.5t-227 87.5q-85 0 -155.5 -33t-117 -87.5t-81 -119.5t-53 -136.5t-27 -129.5t-8.5 -106zM606 1579q6 25 15 51.5t31 69.5t48.5 75t70 56 t93.5 24q75 0 166 -43l39 -18q59 -29 102 -29q37 0 62 24t33 58h153q-46 -148 -118 -213t-152 -65q-69 0 -154 47l-53 26q-56 27 -92 27q-39 0 -59.5 -24.5t-34.5 -65.5h-150z" />
<glyph unicode="&#xd6;" horiz-adv-x="1622" d="M98 594q0 82 15 167t48 172.5t80.5 167.5t116.5 150.5t152 122t191.5 81.5t230.5 30q156 0 280 -48.5t202.5 -133.5t119.5 -196.5t41 -240.5q0 -76 -14 -158t-45 -170.5t-76.5 -170t-114 -155.5t-152 -128.5t-194.5 -86.5t-238 -32q-166 0 -291 46.5t-201 131.5 t-113.5 198t-37.5 253zM463 578q0 -149 84 -237.5t213 -88.5q87 0 163 39.5t128 103t90 145t55.5 165.5t17.5 163q0 147 -82 234.5t-227 87.5q-85 0 -155.5 -33t-117 -87.5t-81 -119.5t-53 -136.5t-27 -129.5t-8.5 -106zM582 1604l51 233h332l-54 -233h-329zM1114 1604 l51 233h332l-53 -233h-330z" />
<glyph unicode="&#xd7;" horiz-adv-x="1482" d="M190 385l340 277l-241 299l258 208l241 -297l345 279l165 -205l-342 -278l244 -303l-258 -209l-246 301l-340 -277z" />
<glyph unicode="&#xd8;" horiz-adv-x="1622" d="M100 586q0 83 14.5 168.5t46.5 174.5t79 169.5t115.5 151.5t152 123t193.5 82t235 30q91 0 164 -14.5t109 -30t85 -43.5l111 131l115 -96l-105 -125q162 -180 162 -445q0 -115 -29 -235.5t-95 -240.5t-160.5 -213t-237.5 -151.5t-314 -58.5q-131 0 -232.5 31.5 t-156.5 66.5l-139 -161l-111 96l136 164q-138 160 -138 426zM455 573q0 -47 20 -137l610 715q-27 15 -42.5 22t-55 17t-82.5 10q-81 0 -150 -31t-116.5 -84t-84 -117.5t-57.5 -136.5t-31.5 -136.5t-10.5 -121.5zM561 305q33 -29 94 -49t119 -20q89 0 172.5 51.5t144 136.5 t97.5 200.5t37 237.5q0 90 -37 180z" />
<glyph unicode="&#xd9;" horiz-adv-x="1492" d="M121 416q0 74 31 225l180 805h362l-196 -881q-15 -60 -15 -110q0 -25 8.5 -52t30 -57.5t67 -50t109.5 -19.5q30 0 56 4.5t60.5 21t62 45t54.5 82t44 126.5l209 891h360l-219 -977q-114 -502 -641 -502q-144 0 -254.5 36t-176.5 99.5t-99 142.5t-33 171zM588 1866h383 l155 -269h-204z" />
<glyph unicode="&#xda;" horiz-adv-x="1492" d="M121 416q0 74 31 225l180 805h362l-196 -881q-15 -60 -15 -110q0 -25 8.5 -52t30 -57.5t67 -50t109.5 -19.5q30 0 56 4.5t60.5 21t62 45t54.5 82t44 126.5l209 891h360l-219 -977q-114 -502 -641 -502q-144 0 -254.5 36t-176.5 99.5t-99 142.5t-33 171zM819 1597l156 269 h383l-332 -269h-207z" />
<glyph unicode="&#xdb;" horiz-adv-x="1492" d="M121 416q0 74 31 225l180 805h362l-196 -881q-15 -60 -15 -110q0 -25 8.5 -52t30 -57.5t67 -50t109.5 -19.5q30 0 56 4.5t60.5 21t62 45t54.5 82t44 126.5l209 891h360l-219 -977q-114 -502 -641 -502q-144 0 -254.5 36t-176.5 99.5t-99 142.5t-33 171zM518 1602l281 237 h393l135 -237h-235l-101 157l-143 -157h-330z" />
<glyph unicode="&#xdc;" horiz-adv-x="1492" d="M121 416q0 74 31 225l180 805h362l-196 -881q-15 -60 -15 -110q0 -25 8.5 -52t30 -57.5t67 -50t109.5 -19.5q30 0 56 4.5t60.5 21t62 45t54.5 82t44 126.5l209 891h360l-219 -977q-114 -502 -641 -502q-144 0 -254.5 36t-176.5 99.5t-99 142.5t-33 171zM526 1604l52 233 h331l-53 -233h-330zM1059 1604l51 233h332l-53 -233h-330z" />
<glyph unicode="&#xdd;" horiz-adv-x="1366" d="M199 1446h358l201 -520l379 520h407l-682 -836l-137 -610h-358l145 655zM721 1597l156 269h383l-332 -269h-207z" />
<glyph unicode="&#xde;" horiz-adv-x="1409" d="M0 0l324 1446h358l-43 -205h264q36 0 70 -2.5t84 -13t92.5 -28t87 -50t75 -76.5t50.5 -111t20 -149q0 -83 -23.5 -161t-69.5 -146.5t-120.5 -121.5t-169.5 -81q-104 -31 -260 -31h-317l-64 -270h-358zM483 532h256q63 0 114 20t81.5 49.5t50.5 66.5t27.5 68.5t7.5 58.5 q0 188 -219 188h-217z" />
<glyph unicode="&#xdf;" horiz-adv-x="1280" d="M0 0l225 997q13 57 28 104t38.5 97.5t52 89.5t70 75t91 59t115.5 37t144 14q198 0 307 -94t109 -253q0 -112 -60 -197.5t-168 -103.5q85 -29 147 -110t62 -209q0 -116 -41 -216.5t-109 -169.5t-158 -108t-187 -39q-74 0 -230 39l53 232q85 -25 129 -25q96 0 159 77 t63 202q0 215 -201 215h-43l49 221q32 -16 74 -16q44 0 77.5 18t51.5 46.5t26.5 58.5t8.5 59q0 36 -11 62.5t-27 40.5t-37 22.5t-37 11t-32 2.5q-71 0 -115 -46.5t-71 -164.5l-236 -1028h-317z" />
<glyph unicode="&#xe0;" d="M20 268q0 132 97 236q27 29 64 51.5t72.5 38.5t92 28t96.5 19t113.5 13t114.5 8.5t127 7.5q20 77 20 112q0 36 -17.5 60t-46.5 33t-46.5 11.5t-36.5 2.5q-151 0 -187 -150q-266 9 -315 11q30 114 89.5 186.5t171 113t280.5 40.5q94 0 167.5 -16t120 -43t77 -63.5 t42.5 -74.5t12 -80q0 -76 -20 -162l-123 -547q-8 -33 -8 -59q0 -11 6 -45h-303q-10 40 -10 49q0 5 3 20.5t8 38t7 39.5q-7 -15 -18.5 -33t-40.5 -45t-65 -48t-96 -36.5t-130 -15.5q-148 0 -233 81.5t-85 217.5zM338 303q0 -14 3 -26.5t13.5 -34t39.5 -34.5t73 -13 q109 0 182 71.5t101 206.5h-31q-199 0 -290 -49t-91 -121zM360 1520h338l193 -332h-193z" />
<glyph unicode="&#xe1;" d="M20 268q0 132 97 236q27 29 64 51.5t72.5 38.5t92 28t96.5 19t113.5 13t114.5 8.5t127 7.5q20 77 20 112q0 36 -17.5 60t-46.5 33t-46.5 11.5t-36.5 2.5q-151 0 -187 -150q-266 9 -315 11q30 114 89.5 186.5t171 113t280.5 40.5q94 0 167.5 -16t120 -43t77 -63.5 t42.5 -74.5t12 -80q0 -76 -20 -162l-123 -547q-8 -33 -8 -59q0 -11 6 -45h-303q-10 40 -10 49q0 5 3 20.5t8 38t7 39.5q-7 -15 -18.5 -33t-40.5 -45t-65 -48t-96 -36.5t-130 -15.5q-148 0 -233 81.5t-85 217.5zM338 303q0 -14 3 -26.5t13.5 -34t39.5 -34.5t73 -13 q109 0 182 71.5t101 206.5h-31q-199 0 -290 -49t-91 -121zM573 1188l193 332h338l-338 -332h-193z" />
<glyph unicode="&#xe2;" d="M20 268q0 132 97 236q27 29 64 51.5t72.5 38.5t92 28t96.5 19t113.5 13t114.5 8.5t127 7.5q20 77 20 112q0 36 -17.5 60t-46.5 33t-46.5 11.5t-36.5 2.5q-151 0 -187 -150q-266 9 -315 11q30 114 89.5 186.5t171 113t280.5 40.5q94 0 167.5 -16t120 -43t77 -63.5 t42.5 -74.5t12 -80q0 -76 -20 -162l-123 -547q-8 -33 -8 -59q0 -11 6 -45h-303q-10 40 -10 49q0 5 3 20.5t8 38t7 39.5q-7 -15 -18.5 -33t-40.5 -45t-65 -48t-96 -36.5t-130 -15.5q-148 0 -233 81.5t-85 217.5zM338 303q0 -14 3 -26.5t13.5 -34t39.5 -34.5t73 -13 q109 0 182 71.5t101 206.5h-31q-199 0 -290 -49t-91 -121zM352 1188l258 258h346l144 -258h-226l-96 151l-143 -151h-283z" />
<glyph unicode="&#xe3;" d="M20 268q0 132 97 236q27 29 64 51.5t72.5 38.5t92 28t96.5 19t113.5 13t114.5 8.5t127 7.5q20 77 20 112q0 36 -17.5 60t-46.5 33t-46.5 11.5t-36.5 2.5q-151 0 -187 -150q-266 9 -315 11q30 114 89.5 186.5t171 113t280.5 40.5q94 0 167.5 -16t120 -43t77 -63.5 t42.5 -74.5t12 -80q0 -76 -20 -162l-123 -547q-8 -33 -8 -59q0 -11 6 -45h-303q-10 40 -10 49q0 5 3 20.5t8 38t7 39.5q-7 -15 -18.5 -33t-40.5 -45t-65 -48t-96 -36.5t-130 -15.5q-148 0 -233 81.5t-85 217.5zM338 303q0 -14 3 -26.5t13.5 -34t39.5 -34.5t73 -13 q109 0 182 71.5t101 206.5h-31q-199 0 -290 -49t-91 -121zM377 1192q6 39 19.5 81t40 91.5t73 81t106.5 31.5q35 0 64 -7.5t78 -33.5l39 -21q62 -35 94 -35q54 0 82 95h147q-20 -75 -47 -130.5t-52.5 -84.5t-56.5 -45.5t-52 -20.5t-46 -4q-58 0 -135 43l-47 27 q-54 28 -82 28q-54 0 -84 -96h-141z" />
<glyph unicode="&#xe4;" d="M20 268q0 132 97 236q27 29 64 51.5t72.5 38.5t92 28t96.5 19t113.5 13t114.5 8.5t127 7.5q20 77 20 112q0 36 -17.5 60t-46.5 33t-46.5 11.5t-36.5 2.5q-151 0 -187 -150q-266 9 -315 11q30 114 89.5 186.5t171 113t280.5 40.5q94 0 167.5 -16t120 -43t77 -63.5 t42.5 -74.5t12 -80q0 -76 -20 -162l-123 -547q-8 -33 -8 -59q0 -11 6 -45h-303q-10 40 -10 49q0 5 3 20.5t8 38t7 39.5q-7 -15 -18.5 -33t-40.5 -45t-65 -48t-96 -36.5t-130 -15.5q-148 0 -233 81.5t-85 217.5zM315 1184l52 237h329l-49 -237h-332zM338 303q0 -14 3 -26.5 t13.5 -34t39.5 -34.5t73 -13q109 0 182 71.5t101 206.5h-31q-199 0 -290 -49t-91 -121zM807 1184l53 237h334l-53 -237h-334z" />
<glyph unicode="&#xe5;" d="M20 268q0 132 97 236q27 29 64 51.5t72.5 38.5t92 28t96.5 19t113.5 13t114.5 8.5t127 7.5q20 77 20 112q0 36 -17.5 60t-46.5 33t-46.5 11.5t-36.5 2.5q-151 0 -187 -150q-266 9 -315 11q30 114 89.5 186.5t171 113t280.5 40.5q94 0 167.5 -16t120 -43t77 -63.5 t42.5 -74.5t12 -80q0 -76 -20 -162l-123 -547q-8 -33 -8 -59q0 -11 6 -45h-303q-10 40 -10 49q0 5 3 20.5t8 38t7 39.5q-7 -15 -18.5 -33t-40.5 -45t-65 -48t-96 -36.5t-130 -15.5q-148 0 -233 81.5t-85 217.5zM338 303q0 -14 3 -26.5t13.5 -34t39.5 -34.5t73 -13 q109 0 182 71.5t101 206.5h-31q-199 0 -290 -49t-91 -121zM518 1378q0 90 65.5 155.5t153.5 65.5q93 0 158.5 -65t65.5 -156q0 -92 -65 -156.5t-157 -64.5q-90 0 -155.5 65.5t-65.5 155.5zM655 1378q0 -35 24.5 -59.5t59.5 -24.5t59.5 25t24.5 59q0 35 -24.5 59.5 t-59.5 24.5t-59.5 -25t-24.5 -59z" />
<glyph unicode="&#xe6;" horiz-adv-x="1921" d="M18 262q0 31 6 62.5t21.5 74t51 84.5t87.5 74q89 56 216.5 77t385.5 34q21 93 21 110q0 37 -17.5 61.5t-46 34t-46.5 12.5t-35 3q-44 0 -79 -15.5t-53.5 -37.5t-30 -44t-15.5 -38l-3 -15l-315 11q15 48 25 74.5t30 60.5t47 63q74 80 176 111t234 31q223 0 340 -97 q33 20 53.5 31t63.5 29.5t95 27.5t111 9q125 0 236 -49.5t174 -145.5q76 -108 76 -289q0 -47 -8 -137h-758q-2 -10 -2 -41q0 -107 58 -163t157 -56q85 0 146 48.5t93 109.5l265 -93q-43 -83 -102.5 -144t-127.5 -95t-137 -50t-143 -16q-72 0 -134.5 12.5t-101.5 27.5t-78 44 t-53 43t-40 45.5t-27 32.5q-20 -24 -52.5 -52t-92 -66.5t-148.5 -63.5t-189 -25q-157 0 -245.5 81t-88.5 214zM336 299q0 -43 28.5 -73.5t90.5 -30.5q112 0 184.5 71t97.5 203h-49q-188 0 -270 -50t-82 -120zM1100 666h446q0 77 -50.5 139.5t-143.5 62.5q-166 0 -252 -202z " />
<glyph unicode="&#xe7;" horiz-adv-x="1191" d="M55 471q0 164 78.5 305.5t222 227.5t318.5 86q93 0 170.5 -24t128.5 -60.5t90.5 -87t60.5 -95.5t35 -94l-282 -61q-42 174 -207 174q-65 0 -121.5 -36t-92 -92.5t-55.5 -123.5t-20 -131q0 -24 2.5 -46.5t14.5 -60t33.5 -64.5t64 -47t100.5 -20q152 0 217 176l287 -88 q-16 -37 -38 -73.5t-66 -86.5t-97.5 -87t-135 -64t-175.5 -29l-70 -112q61 10 92 10q54 0 88.5 -28.5t34.5 -78.5q0 -54 -31 -94.5t-80.5 -61t-99 -30.5t-98.5 -10q-70 0 -137 6l20 92q29 -4 74 -4q33 0 65.5 16t32.5 43q0 15 -15 27t-38 12q-55 0 -100 -18l16 72l141 165 q-190 28 -309 163t-119 333z" />
<glyph unicode="&#xe8;" d="M59 477q0 84 23 169t72 165.5t118 143t169.5 100t217.5 37.5q103 0 190 -29.5t154 -87.5t104.5 -151.5t37.5 -213.5q0 -49 -8 -139h-768q-2 -25 -2 -43q0 -40 11 -76t34.5 -68.5t67 -51.5t102.5 -19q81 0 146.5 41t102.5 115l265 -93q-31 -51 -59 -89t-74 -81.5 t-98 -71.5t-127.5 -46.5t-164.5 -18.5q-224 0 -369 135.5t-145 372.5zM319 1520h338l193 -332h-193zM410 670h452v12q0 78 -53.5 133t-146.5 55q-92 0 -154.5 -56t-97.5 -144z" />
<glyph unicode="&#xe9;" d="M59 477q0 84 23 169t72 165.5t118 143t169.5 100t217.5 37.5q103 0 190 -29.5t154 -87.5t104.5 -151.5t37.5 -213.5q0 -49 -8 -139h-768q-2 -25 -2 -43q0 -40 11 -76t34.5 -68.5t67 -51.5t102.5 -19q81 0 146.5 41t102.5 115l265 -93q-31 -51 -59 -89t-74 -81.5 t-98 -71.5t-127.5 -46.5t-164.5 -18.5q-224 0 -369 135.5t-145 372.5zM410 670h452v12q0 78 -53.5 133t-146.5 55q-92 0 -154.5 -56t-97.5 -144zM547 1188l192 332h338l-338 -332h-192z" />
<glyph unicode="&#xea;" d="M59 477q0 84 23 169t72 165.5t118 143t169.5 100t217.5 37.5q103 0 190 -29.5t154 -87.5t104.5 -151.5t37.5 -213.5q0 -49 -8 -139h-768q-2 -25 -2 -43q0 -40 11 -76t34.5 -68.5t67 -51.5t102.5 -19q81 0 146.5 41t102.5 115l265 -93q-31 -51 -59 -89t-74 -81.5 t-98 -71.5t-127.5 -46.5t-164.5 -18.5q-224 0 -369 135.5t-145 372.5zM322 1188l258 258h346l143 -258h-225l-96 151l-144 -151h-282zM410 670h452v12q0 78 -53.5 133t-146.5 55q-92 0 -154.5 -56t-97.5 -144z" />
<glyph unicode="&#xeb;" d="M59 477q0 84 23 169t72 165.5t118 143t169.5 100t217.5 37.5q103 0 190 -29.5t154 -87.5t104.5 -151.5t37.5 -213.5q0 -49 -8 -139h-768q-2 -25 -2 -43q0 -40 11 -76t34.5 -68.5t67 -51.5t102.5 -19q81 0 146.5 41t102.5 115l265 -93q-31 -51 -59 -89t-74 -81.5 t-98 -71.5t-127.5 -46.5t-164.5 -18.5q-224 0 -369 135.5t-145 372.5zM317 1184l52 237h329l-49 -237h-332zM410 670h452v12q0 78 -53.5 133t-146.5 55q-92 0 -154.5 -56t-97.5 -144zM809 1184l53 237h334l-53 -237h-334z" />
<glyph unicode="&#xec;" horiz-adv-x="598" d="M0 0l244 1055h315l-240 -1055h-319zM59 1520h338l193 -332h-193z" />
<glyph unicode="&#xed;" horiz-adv-x="598" d="M0 0l244 1055h315l-240 -1055h-319zM281 1188l192 332h338l-338 -332h-192z" />
<glyph unicode="&#xee;" horiz-adv-x="598" d="M0 0l244 1055h315l-240 -1055h-319zM45 1188l258 258h346l144 -258h-226l-96 151l-143 -151h-283z" />
<glyph unicode="&#xef;" horiz-adv-x="598" d="M0 0l244 1055h315l-240 -1055h-319zM25 1184l51 237h330l-50 -237h-331zM516 1184l53 237h334l-53 -237h-334z" />
<glyph unicode="&#xf0;" horiz-adv-x="1280" d="M59 455q0 115 34.5 217.5t93 178t134.5 130.5t161 83t171 28q129 0 207 -82q-12 60 -28.5 99t-47.5 95l-313 -74l-33 113l279 66q-16 22 -29 38t-32 36.5t-25 27.5l250 78q40 -46 96 -121l178 43l35 -113l-148 -34q57 -96 105.5 -253.5t48.5 -334.5q0 -102 -21.5 -200 t-70.5 -190.5t-120 -162.5t-178 -112t-237 -42q-218 0 -364 133t-146 353zM379 465q0 -65 19 -115t50.5 -78t67.5 -41.5t74 -13.5q61 0 110.5 29t79.5 72.5t50.5 98.5t28 103.5t7.5 91.5q-1 65 -19.5 112.5t-49.5 72.5t-64.5 36t-70.5 11q-46 0 -94.5 -24t-91.5 -69 t-70 -120t-27 -166z" />
<glyph unicode="&#xf1;" d="M4 0l240 1055h315l-29 -127q23 26 41.5 43t59.5 47t94 46.5t113 16.5q79 0 138 -26t90.5 -68.5t46.5 -87.5t15 -92q0 -53 -16 -125l-156 -682h-315l137 623q13 78 13 98q0 35 -13.5 60t-35 36.5t-39 16t-33.5 4.5q-47 0 -85.5 -23.5t-63 -63t-39.5 -77t-25 -80.5 l-138 -594h-315zM387 1192q4 30 13 62.5t28 74t44.5 73t66 53.5t88.5 22q34 0 63 -7.5t78 -33.5l39 -21q62 -35 94 -35q54 0 82 95h147q-20 -76 -47 -131t-52 -84t-56 -45.5t-52 -20.5t-46 -4q-59 0 -136 43l-47 27q-54 28 -82 28q-54 0 -84 -96h-141z" />
<glyph unicode="&#xf2;" horiz-adv-x="1280" d="M59 475q0 81 23.5 165t74.5 165.5t122.5 145t175.5 102.5t225 39q144 0 258.5 -57t183 -171t68.5 -268q0 -75 -21.5 -157.5t-70.5 -167t-119 -151t-176.5 -109t-233.5 -42.5q-107 0 -195 30t-145.5 79t-96.5 115.5t-56 136.5t-17 145zM356 1520h338l193 -332h-193z M379 463q0 -55 13 -98t34 -70t49.5 -44.5t56.5 -24.5t58 -7q88 0 153 61.5t94 146.5t29 175q0 48 -11 90t-34.5 77t-64 55t-94.5 20q-119 0 -201 -110.5t-82 -270.5z" />
<glyph unicode="&#xf3;" horiz-adv-x="1280" d="M59 475q0 81 23.5 165t74.5 165.5t122.5 145t175.5 102.5t225 39q144 0 258.5 -57t183 -171t68.5 -268q0 -75 -21.5 -157.5t-70.5 -167t-119 -151t-176.5 -109t-233.5 -42.5q-107 0 -195 30t-145.5 79t-96.5 115.5t-56 136.5t-17 145zM379 463q0 -55 13 -98t34 -70 t49.5 -44.5t56.5 -24.5t58 -7q88 0 153 61.5t94 146.5t29 175q0 48 -11 90t-34.5 77t-64 55t-94.5 20q-119 0 -201 -110.5t-82 -270.5zM596 1188l192 332h338l-338 -332h-192z" />
<glyph unicode="&#xf4;" horiz-adv-x="1280" d="M59 475q0 81 23.5 165t74.5 165.5t122.5 145t175.5 102.5t225 39q144 0 258.5 -57t183 -171t68.5 -268q0 -75 -21.5 -157.5t-70.5 -167t-119 -151t-176.5 -109t-233.5 -42.5q-107 0 -195 30t-145.5 79t-96.5 115.5t-56 136.5t-17 145zM344 1188l258 258h346l144 -258 h-226l-96 151l-143 -151h-283zM379 463q0 -55 13 -98t34 -70t49.5 -44.5t56.5 -24.5t58 -7q88 0 153 61.5t94 146.5t29 175q0 48 -11 90t-34.5 77t-64 55t-94.5 20q-119 0 -201 -110.5t-82 -270.5z" />
<glyph unicode="&#xf5;" horiz-adv-x="1280" d="M59 475q0 81 23.5 165t74.5 165.5t122.5 145t175.5 102.5t225 39q144 0 258.5 -57t183 -171t68.5 -268q0 -75 -21.5 -157.5t-70.5 -167t-119 -151t-176.5 -109t-233.5 -42.5q-107 0 -195 30t-145.5 79t-96.5 115.5t-56 136.5t-17 145zM379 463q0 -55 13 -98t34 -70 t49.5 -44.5t56.5 -24.5t58 -7q88 0 153 61.5t94 146.5t29 175q0 48 -11 90t-34.5 77t-64 55t-94.5 20q-119 0 -201 -110.5t-82 -270.5zM387 1192q4 30 13 62.5t28 74t44.5 73t66 53.5t88.5 22q34 0 63 -7.5t78 -33.5l39 -21q62 -35 94 -35q54 0 82 95h147q-20 -76 -47 -131 t-52 -84t-56 -45.5t-52 -20.5t-46 -4q-59 0 -136 43l-47 27q-54 28 -82 28q-54 0 -84 -96h-141z" />
<glyph unicode="&#xf6;" horiz-adv-x="1280" d="M59 475q0 81 23.5 165t74.5 165.5t122.5 145t175.5 102.5t225 39q144 0 258.5 -57t183 -171t68.5 -268q0 -75 -21.5 -157.5t-70.5 -167t-119 -151t-176.5 -109t-233.5 -42.5q-107 0 -195 30t-145.5 79t-96.5 115.5t-56 136.5t-17 145zM338 1184l51 237h330l-49 -237h-332 zM379 463q0 -55 13 -98t34 -70t49.5 -44.5t56.5 -24.5t58 -7q88 0 153 61.5t94 146.5t29 175q0 48 -11 90t-34.5 77t-64 55t-94.5 20q-119 0 -201 -110.5t-82 -270.5zM829 1184l54 237h334l-54 -237h-334z" />
<glyph unicode="&#xf7;" horiz-adv-x="1482" d="M141 518l66 285h1157l-64 -285h-1159zM467 96l72 312h315l-72 -312h-315zM655 913l72 312h315l-71 -312h-316z" />
<glyph unicode="&#xf8;" horiz-adv-x="1280" d="M57 461q0 172 85 318.5t226 230.5t302 84q26 0 53.5 -2.5t47.5 -6t44 -9.5t36 -9.5t31 -10t23 -7.5l96 143h152l-139 -207q35 -31 61 -62t54 -78t43.5 -110.5t15.5 -138.5q0 -87 -24 -174t-76 -169t-125.5 -145t-180 -101t-231.5 -38q-71 0 -128.5 16t-78.5 29l-98 -147 h-154l141 205q-3 3 -28.5 29t-39 41.5t-37.5 52t-37 70.5t-23.5 86t-10.5 110zM365 461q0 -78 32 -152l361 525q-60 24 -101 24q-59 0 -109 -25.5t-83 -66.5t-56 -93.5t-33.5 -106t-10.5 -105.5zM489 219q63 -18 101 -18q84 0 150 56.5t100 148.5t34 202q0 17 -1.5 33 t-2.5 26t-5 24t-5 18t-6.5 19.5t-5.5 16.5z" />
<glyph unicode="&#xf9;" d="M74 252q0 50 18 135l150 668h317l-139 -621q-8 -32 -8 -74q0 -53 27.5 -87.5t92.5 -34.5q165 0 218 241l129 576h315l-238 -1055h-315l31 139q-19 -21 -30.5 -33t-42.5 -36.5t-60.5 -39t-75 -26.5t-94.5 -12q-124 0 -209.5 70t-85.5 190zM356 1520h338l193 -332h-193z " />
<glyph unicode="&#xfa;" d="M74 252q0 50 18 135l150 668h317l-139 -621q-8 -32 -8 -74q0 -53 27.5 -87.5t92.5 -34.5q165 0 218 241l129 576h315l-238 -1055h-315l31 139q-19 -21 -30.5 -33t-42.5 -36.5t-60.5 -39t-75 -26.5t-94.5 -12q-124 0 -209.5 70t-85.5 190zM600 1188l193 332h337l-337 -332 h-193z" />
<glyph unicode="&#xfb;" d="M74 252q0 50 18 135l150 668h317l-139 -621q-8 -32 -8 -74q0 -53 27.5 -87.5t92.5 -34.5q165 0 218 241l129 576h315l-238 -1055h-315l31 139q-19 -21 -30.5 -33t-42.5 -36.5t-60.5 -39t-75 -26.5t-94.5 -12q-124 0 -209.5 70t-85.5 190zM362 1188l259 258h346l143 -258 h-225l-97 151l-143 -151h-283z" />
<glyph unicode="&#xfc;" d="M74 252q0 50 18 135l150 668h317l-139 -621q-8 -32 -8 -74q0 -53 27.5 -87.5t92.5 -34.5q165 0 218 241l129 576h315l-238 -1055h-315l31 139q-19 -21 -30.5 -33t-42.5 -36.5t-60.5 -39t-75 -26.5t-94.5 -12q-124 0 -209.5 70t-85.5 190zM336 1184l51 237h330l-49 -237 h-332zM827 1184l54 237h333l-53 -237h-334z" />
<glyph unicode="&#xfd;" horiz-adv-x="1024" d="M-139 -371l55 256q86 -14 109 -14q60 0 96 19.5t67 58.5l-108 1106h319l33 -738l371 738h350l-688 -1172q-32 -55 -57 -90t-63 -71t-80.5 -56t-105 -32.5t-141.5 -12.5q-89 0 -157 8zM475 1188l193 332h338l-338 -332h-193z" />
<glyph unicode="&#xfe;" horiz-adv-x="1280" d="M-84 -385l410 1831h284l-106 -498q35 39 65 64t88.5 48t126.5 23q52 0 104.5 -12.5t108.5 -44.5t99 -80.5t70.5 -129t27.5 -181.5q0 -130 -39.5 -250.5t-109.5 -212t-174 -146.5t-224 -55q-119 0 -185 35.5t-118 104.5l-113 -496h-315zM412 420q0 -59 18 -104t47.5 -69.5 t61 -36t63.5 -11.5q60 0 109 30t80 75.5t52 103.5t29.5 110.5t8.5 99.5q0 120 -53 180t-130 60q-67 0 -120.5 -36.5t-83.5 -88.5t-49.5 -116t-26 -112.5t-6.5 -84.5z" />
<glyph unicode="&#xff;" horiz-adv-x="1024" d="M-139 -371l55 256q86 -14 109 -14q60 0 96 19.5t67 58.5l-108 1106h319l33 -738l371 738h350l-688 -1172q-32 -55 -57 -90t-63 -71t-80.5 -56t-105 -32.5t-141.5 -12.5q-89 0 -157 8zM209 1184l51 237h330l-49 -237h-332zM700 1184l54 237h333l-53 -237h-334z" />
<glyph unicode="&#x152;" horiz-adv-x="2217" d="M96 580q0 132 35 261.5t103.5 244t162.5 203t220.5 139.5t267.5 51q86 0 162 -16t115.5 -32.5t86.5 -41.5l13 57h956l-61 -279h-615l-63 -278h587l-57 -262h-590l-82 -351h729l-65 -276h-1069l14 57q-74 -32 -110 -46t-93.5 -26t-119.5 -12q-77 0 -150.5 21t-142.5 68 t-120.5 116t-82.5 172.5t-31 229.5zM465 616q0 -100 26 -172.5t69.5 -109t88.5 -52.5t94 -16q62 0 115.5 21.5t89 56t58.5 67.5t36 66l115 504q-18 106 -85.5 162.5t-166.5 56.5q-111 0 -212 -77t-164.5 -213t-63.5 -294z" />
<glyph unicode="&#x153;" horiz-adv-x="1961" d="M61 459q0 135 49 253.5t132 201t196.5 129.5t239.5 47q214 0 358 -134q28 22 42.5 33t51.5 33.5t69.5 34.5t81.5 22.5t101 10.5q100 0 187 -29t155 -85.5t107 -147.5t39 -207q0 -74 -10 -152h-740q-2 -10 -2 -29q0 -66 18.5 -112.5t50.5 -70.5t66 -34t74 -10 q76 0 129.5 42.5t97.5 113.5l265 -95q-174 -305 -512 -305q-70 0 -128.5 12.5t-104.5 37.5t-68 40.5t-56 44.5q-35 -28 -59.5 -44t-74 -41.5t-112 -38.5t-135.5 -13q-103 0 -193.5 32t-161.5 92t-112 155t-41 213zM381 467q0 -117 52 -182.5t147 -65.5q68 0 122 35.5 t85.5 92.5t48 121.5t16.5 129.5q0 117 -52.5 180.5t-140.5 63.5q-86 0 -151.5 -61.5t-96 -145t-30.5 -168.5zM1161 668h426q0 88 -54.5 143t-133.5 55q-81 0 -145 -58.5t-93 -139.5z" />
<glyph unicode="&#x178;" horiz-adv-x="1366" d="M199 1446h358l201 -520l379 520h407l-682 -836l-137 -610h-358l145 655zM479 1604l51 233h332l-53 -233h-330zM1012 1604l51 233h332l-54 -233h-329z" />
<glyph unicode="&#x2c6;" horiz-adv-x="641" d="M-53 1188l258 258h346l143 -258h-225l-96 151l-144 -151h-282z" />
<glyph unicode="&#x2dc;" horiz-adv-x="641" d="M-51 1192q6 39 19.5 81t40 91.5t73 81t106.5 31.5q35 0 64 -7.5t78 -33.5l39 -21q62 -35 94 -35q54 0 82 95h147q-20 -75 -47 -130.5t-52.5 -84.5t-56.5 -45.5t-52 -20.5t-46 -4q-58 0 -135 43l-47 27q-54 28 -82 28q-54 0 -84 -96h-141z" />
<glyph unicode="&#x2000;" horiz-adv-x="969" />
<glyph unicode="&#x2001;" horiz-adv-x="1939" />
<glyph unicode="&#x2002;" horiz-adv-x="969" />
<glyph unicode="&#x2003;" horiz-adv-x="1939" />
<glyph unicode="&#x2004;" horiz-adv-x="646" />
<glyph unicode="&#x2005;" horiz-adv-x="484" />
<glyph unicode="&#x2006;" horiz-adv-x="323" />
<glyph unicode="&#x2007;" horiz-adv-x="323" />
<glyph unicode="&#x2008;" horiz-adv-x="242" />
<glyph unicode="&#x2009;" horiz-adv-x="387" />
<glyph unicode="&#x200a;" horiz-adv-x="107" />
<glyph unicode="&#x2010;" horiz-adv-x="770" d="M53 485l68 293h612l-67 -293h-613z" />
<glyph unicode="&#x2011;" horiz-adv-x="770" d="M53 485l68 293h612l-67 -293h-613z" />
<glyph unicode="&#x2012;" horiz-adv-x="770" d="M53 485l68 293h612l-67 -293h-613z" />
<glyph unicode="&#x2013;" horiz-adv-x="1282" d="M53 485l68 293h1124l-67 -293h-1125z" />
<glyph unicode="&#x2014;" horiz-adv-x="1880" d="M53 485l68 293h1722l-67 -293h-1723z" />
<glyph unicode="&#x2018;" horiz-adv-x="512" d="M137 776l51 228q17 73 42.5 133.5t51 102.5t64 78t66 56t74 41t69.5 29.5t70 23.5l-35 -149q-82 -51 -110.5 -86t-63.5 -127h123l-76 -330h-326z" />
<glyph unicode="&#x2019;" horiz-adv-x="512" d="M111 756l34 149q82 49 110.5 84t63.5 127h-120l73 330h328l-53 -227q-17 -74 -42.5 -135t-50.5 -102.5t-62.5 -77.5t-64.5 -56t-73 -40t-70.5 -28.5t-72.5 -23.5z" />
<glyph unicode="&#x201a;" horiz-adv-x="512" d="M-131 -360l35 149q82 49 110.5 84t63.5 127h-123l76 332h325l-51 -230q-16 -72 -41 -132t-51.5 -102.5t-63.5 -78t-67 -57t-73 -41t-70.5 -29t-69.5 -22.5z" />
<glyph unicode="&#x201c;" horiz-adv-x="980" d="M135 772l51 227q16 71 41.5 131.5t52 102.5t63.5 78t67 57.5t73.5 42t70.5 30.5t69 23l-35 -149q-82 -51 -110 -86t-62 -127h121l-76 -330h-326zM608 772l54 227q24 101 63 178t73.5 120t96 80t92 48.5t100.5 34.5q7 3 11 4l-35 -149q-82 -51 -110.5 -86t-63.5 -127h123 l-76 -330h-328z" />
<glyph unicode="&#x201d;" horiz-adv-x="980" d="M117 756l35 149q82 49 110.5 84t63.5 127h-123l76 330h325l-51 -227q-16 -71 -41 -131t-51.5 -102t-63.5 -77.5t-67 -57.5t-72.5 -42t-70.5 -30t-70 -23zM594 756l35 149q82 49 110.5 84t63.5 127h-121l74 330h327l-53 -227q-17 -71 -41.5 -130t-51 -101.5t-62.5 -77.5 t-66 -57t-72.5 -42.5t-71 -31t-71.5 -23.5z" />
<glyph unicode="&#x201e;" horiz-adv-x="980" d="M-131 -360l35 149q82 49 110.5 84t63.5 127h-123l76 332h325l-51 -230q-16 -71 -40.5 -130.5t-51 -102t-63 -78t-66.5 -57t-73.5 -41.5t-71 -30t-70.5 -23zM332 -360l35 149q82 49 110.5 84t63.5 127h-121l74 332h327l-53 -230q-13 -57 -31.5 -107t-37 -87.5t-45 -70.5 t-47.5 -55.5t-53.5 -44t-53.5 -33.5t-57 -26t-55 -20.5t-56 -17.5z" />
<glyph unicode="&#x2022;" horiz-adv-x="681" d="M51 451l121 528h526l-120 -528h-527z" />
<glyph unicode="&#x2026;" horiz-adv-x="2048" d="M74 0l63 279h279l-66 -279h-276zM760 0l63 279h279l-66 -279h-276zM1442 0l65 279h277l-64 -279h-278z" />
<glyph unicode="&#x202f;" horiz-adv-x="387" />
<glyph unicode="&#x2039;" horiz-adv-x="468" d="M51 496l76 331l360 230l-65 -291l-213 -133l147 -148l-57 -249z" />
<glyph unicode="&#x203a;" horiz-adv-x="468" d="M-6 233l65 287l211 137l-147 144l59 252l244 -260l-72 -324z" />
<glyph unicode="&#x205f;" horiz-adv-x="484" />
<glyph unicode="&#x20ac;" horiz-adv-x="1533" d="M18 516l97 154h96q0 46 10 80h-151l96 159h96q82 256 275 388.5t464 132.5q161 0 286.5 -41.5t228.5 -143.5l-152 -262q-76 86 -162.5 129t-195.5 43q-127 0 -220 -64t-141 -182h682l-92 -159h-633q-12 -44 -12 -80h598l-88 -154h-510q17 -128 109.5 -196t226.5 -68 q125 0 219 39t194 125l-71 -377q-173 -76 -387 -76q-133 0 -248.5 34.5t-206 101.5t-146 174t-63.5 243h-199z" />
<glyph unicode="&#x2122;" horiz-adv-x="1507" d="M162 1307l31 139h552l-28 -139h-187l-116 -539h-174l116 539h-194zM678 768l147 678h254l19 -434l205 434h253l-143 -678h-166l117 516l-246 -516h-143l-25 524l-106 -524h-166z" />
<glyph unicode="&#x25fc;" horiz-adv-x="1054" d="M0 0v1055h1055v-1055h-1055z" />
</font>
</defs>
</svg>
