<svg xmlns="http://www.w3.org/2000/svg" height="266" width="1295"><g opacity=".1"><path fill="#67B145" d="M73.8 13.5H7.2A6.3 6.3 0 0 1 7.2 1h66.6a6.3 6.3 0 0 1 0 12.5"/><path fill="#F38162" d="M73.5 37.2H7a6.3 6.3 0 0 1 0-12.6h66.5a6.3 6.3 0 0 1 0 12.6"/><path fill="#C4DCF2" d="M90.9 60.7H24.4a6.3 6.3 0 0 1 0-12.6h66.5a6.3 6.3 0 0 1 0 12.6"/><path fill="#F2B55D" d="M76.1 84.1H9.6a6.3 6.3 0 0 1 0-12.5H76a6.3 6.3 0 0 1 0 12.5"/><path fill="#F4758B" d="M74.7 107.6H8.2a6.3 6.3 0 0 1 0-12.5h66.5a6.3 6.3 0 0 1 0 12.5"/><path d="M1281.7 54.5a6.5 6.5 0 1 1 13 0 6.5 6.5 0 0 1-13 0" fill="#f2b55d"/><path fill="#C4DCF2" d="M1258.5 54.5a6.5 6.5 0 1 1 12.9 0 6.5 6.5 0 0 1-13 0"/><path fill="#67B145" d="M1235.3 54.5a6.5 6.5 0 1 1 12.9 0 6.5 6.5 0 0 1-13 0"/><path fill="#F4758B" d="M1212 54.5a6.5 6.5 0 1 1 13 0 6.5 6.5 0 0 1-13 0"/><path fill="#C4DCF2" d="M1188.8 54.5a6.5 6.5 0 1 1 13 0 6.5 6.5 0 0 1-13 0"/><path fill="#F38162" d="M1165.6 54.5a6.5 6.5 0 1 1 13 0 6.5 6.5 0 0 1-13 0"/><path fill="#F2B55D" d="M1142.4 54.5a6.5 6.5 0 1 1 12.9 0 6.5 6.5 0 0 1-13 0"/><path fill="#C4DCF2" d="M1119.1 54.5a6.5 6.5 0 1 1 13 0 6.5 6.5 0 0 1-13 0"/><path fill="#F38162" d="M1096 54.5a6.5 6.5 0 1 1 12.8 0 6.5 6.5 0 0 1-12.9 0"/><path fill="#F2B55D" d="M1281.7 7.5a6.5 6.5 0 1 1 13 0 6.5 6.5 0 0 1-13 0"/><path fill="#F6D29D" d="M1281.7 31c0-3.3 2.9-6 6.5-6 3.5 0 6.4 2.7 6.4 6s-2.9 6-6.4 6c-3.6 0-6.5-2.7-6.5-6"/><path fill="#C4DCF2" d="M1258.5 7.5a6.5 6.5 0 1 1 12.9 0 6.5 6.5 0 0 1-13 0"/><path fill="#67B145" d="M1235.3 7.5a6.5 6.5 0 1 1 12.9 0 6.5 6.5 0 0 1-13 0"/><path fill="#F4758B" d="M1212 7.5a6.5 6.5 0 1 1 13 0 6.5 6.5 0 0 1-13 0"/><path fill="#C4DCF2" d="M1188.8 7.5a6.5 6.5 0 1 1 13 0 6.5 6.5 0 0 1-13 0"/><path fill="#F38162" d="M1165.6 7.5a6.5 6.5 0 1 1 13 0 6.5 6.5 0 0 1-13 0"/><path fill="#F2B55D" d="M1142.4 7.5a6.5 6.5 0 1 1 12.9 0 6.5 6.5 0 0 1-13 0"/><path fill="#C4DCF2" d="M1119.1 7.5a6.5 6.5 0 1 1 13 0 6.5 6.5 0 0 1-13 0"/><path fill="#F38162" d="M1096 7.5a6.5 6.5 0 1 1 12.8 0 6.5 6.5 0 0 1-12.9 0"/><path fill="#F4758B" d="M1072.7 7.5a6.5 6.5 0 1 1 13 0 6.5 6.5 0 0 1-13 0"/><path fill="#F2B55D" d="M1049.5 7.5a6.5 6.5 0 1 1 12.9 0 6.5 6.5 0 0 1-13 0"/><path fill="#F38162" d="M1026.2 7.5a6.5 6.5 0 1 1 13 0 6.5 6.5 0 0 1-13 0"/><path fill="#F4758B" d="M1280.8 77.7a6.5 6.5 0 0 0 6.3 6.7 6.5 6.5 0 0 0 6.7-6.4 6.6 6.6 0 0 0-6.4-6.7h-.1a6.5 6.5 0 0 0-6.5 6.4"/><path fill="#67B145" d="M1278.8 100.3a6.5 6.5 0 0 0 5.5 7.4 6.5 6.5 0 0 0 7.4-5.5 6.5 6.5 0 0 0-6.4-7.5c-3.2 0-6 2.3-6.5 5.6"/><path fill="#F2B55D" d="M1275 122.9a6.5 6.5 0 0 0 12.7 3.5 6.5 6.5 0 0 0-6.3-8.3 6.5 6.5 0 0 0-6.3 4.8m6.7-70.3a6.5 6.5 0 0 0 12.6 3.6 6.5 6.5 0 0 0-6.3-8.3 6.5 6.5 0 0 0-6.3 4.7"/><path fill="#C4DCF2" d="M1266.5 143.8a6.5 6.5 0 0 0 3.4 8.6 6.5 6.5 0 0 0 8.6-3.5 6.5 6.5 0 0 0-6-9 6.5 6.5 0 0 0-6 3.9"/><path fill="#F2B55D" d="M1256.2 164a6.5 6.5 0 0 0 2.4 9 6.5 6.5 0 0 0 9-2.4 6.5 6.5 0 0 0-2.4-8.9 6.5 6.5 0 0 0-3.3-.9 6.5 6.5 0 0 0-5.7 3.2"/><path fill="#67B145" d="M1243.5 182.8a6.5 6.5 0 0 0 1.2 9.2 6.5 6.5 0 0 0 9.2-1.2 6.5 6.5 0 0 0-5.2-10.5 6.5 6.5 0 0 0-5.2 2.5"/><path fill="#F4758B" d="M1228.6 199.9a6.5 6.5 0 0 0 0 9.2 6.5 6.5 0 0 0 9.3 0 6.5 6.5 0 0 0 0-9.2 6.5 6.5 0 0 0-4.7-2 6.5 6.5 0 0 0-4.6 2"/><path fill="#F2B55D" d="M1211.6 215a6.5 6.5 0 0 0-1.1 9.1 6.5 6.5 0 0 0 10.3-8 6.5 6.5 0 0 0-5.2-2.5c-1.4 0-2.8.4-4 1.3"/><path fill="#67B145" d="M1192.9 227.7a6.5 6.5 0 0 0-2.3 9 6.5 6.5 0 0 0 9 2.3 6.5 6.5 0 0 0-6.7-11.3"/><path fill="#F38162" d="M1172.7 238a6.5 6.5 0 0 0-3.4 8.7 6.5 6.5 0 1 0 12-5.3 6.5 6.5 0 0 0-6-3.9c-.9 0-1.7.2-2.6.6m-21.3 7.7a6.5 6.5 0 0 0-4.5 8 6.5 6.5 0 1 0 4.5-8"/><path fill="#F4758B" d="M1129.2 250.7a6.5 6.5 0 0 0-5.4 7.5 6.5 6.5 0 0 0 12.9-2 6.5 6.5 0 0 0-7.5-5.5"/><path fill="#67B145" d="M1106.6 252.8a6.5 6.5 0 0 0-6.3 6.7 6.5 6.5 0 0 0 6.7 6.4 6.5 6.5 0 0 0-.2-13.1h-.2"/><path fill="#C4DCF2" d="M202.7 54.5a6.5 6.5 0 1 1 12.9 0 6.5 6.5 0 0 1-13 0"/><path fill="#F4758B" d="M179.5 54.5a6.5 6.5 0 1 1 12.9 0 6.5 6.5 0 0 1-13 0"/><path fill="#67B145" d="M156.2 54.5a6.5 6.5 0 1 1 13 0 6.5 6.5 0 0 1-13 0"/><path fill="#C4DCF2" d="M133 54.5a6.5 6.5 0 1 1 13 0 6.5 6.5 0 0 1-13 0m-23.2 0a6.5 6.5 0 1 1 12.9 0 6.5 6.5 0 0 1-13 0"/><path fill="#67B145" d="M88.1 7.4a6.5 6.5 0 1 1 13 0 6.5 6.5 0 0 1-13 0m23.2 0a6.5 6.5 0 1 1 13 0 6.5 6.5 0 0 1-13 0m23.3 0a6.5 6.5 0 1 1 12.9 0 6.5 6.5 0 0 1-13 0m28.8 6.9a6.5 6.5 0 1 1 7.3-5.5 6.5 6.5 0 0 1-6.4 5.5 6.5 6.5 0 0 1-.9 0m18.3 7.5a6.5 6.5 0 0 1-1.3-9 6.4 6.4 0 0 1 9-1.4 6.5 6.5 0 0 1 1.3 9.1 6.4 6.4 0 0 1-9 1.3M194 37.2a6.4 6.4 0 1 1 11.7-5.4c1.5 3.3.1 7.1-3.1 8.6a6.4 6.4 0 0 1-2.7.6 6.5 6.5 0 0 1-5.9-3.8"/><path fill="#F4758B" d="M197.2 79.8a6.5 6.5 0 0 1-3.2-8.5 6.4 6.4 0 0 1 8.6-3.2 6.5 6.5 0 0 1 3.2 8.5 6.4 6.4 0 0 1-8.6 3.2m-17 16a6.5 6.5 0 0 1 1.4-9.1 6.4 6.4 0 0 1 9 1.3c2.2 2.9 1.6 7-1.3 9a6.4 6.4 0 0 1-3.8 1.3c-2 0-4-.9-5.2-2.6m-22.5 5.8a6.5 6.5 0 1 1 7.3 5.5 6.5 6.5 0 0 1-7.3-5.5m-69.7-.4c0-3.6 2.9-6.5 6.5-6.5a6.5 6.5 0 0 1 6.4 6.5 6.5 6.5 0 1 1-12.9 0m23.2 0a6.5 6.5 0 1 1 13 0 6.5 6.5 0 0 1-13 0m23.3 0a6.5 6.5 0 1 1 12.9 0 6.5 6.5 0 0 1-13 0"/><path fill="#F38162" d="M88.5 30.6a6.5 6.5 0 1 1 13 0 6.5 6.5 0 0 1-13 0m23.3 0a6.5 6.5 0 1 1 12.9 0 6.5 6.5 0 0 1-13 0m23.3 0a6.5 6.5 0 1 1 13 0 6.5 6.5 0 0 1-13 0m15.9 7.4a6.5 6.5 0 1 1 13 0 6.5 6.5 0 0 1-13 0m0 32.5a6.5 6.5 0 1 1 13 0 6.5 6.5 0 0 1-13 0M88.5 78a6.5 6.5 0 1 1 13 0 6.5 6.5 0 0 1-13 0m23.3 0a6.5 6.5 0 1 1 12.9 0 6.5 6.5 0 0 1-13 0m23.3 0a6.5 6.5 0 1 1 13 0 6.5 6.5 0 0 1-13 0"/></g></svg>
