<svg id="Layer_1" data-name="Layer 1" xmlns="http://www.w3.org/2000/svg" viewBox="0 0 1138.17 313.1"><defs><style>.cls-1{fill:#06232e;}</style></defs><path class="cls-1" d="M100.21,48.47C89.39,35.7,80.08,22.65,78.18,20a.43.43,0,0,0-.7,0c-1.89,2.68-11.2,15.73-22,28.5C-37.23,166.55,70.09,246.22,70.09,246.22l.87.61c.82,12.32,2.84,30,2.84,30h8.07s2-17.64,2.83-30l.88-.69S192.9,166.55,100.21,48.47m-22.37,196h0s-4.81-4.1-6.11-6.16v-.22l5.82-128.56a.31.31,0,0,1,.61,0L84,238.11v.22c-1.3,2-6.11,6.16-6.11,6.16"/><path class="cls-1" d="M278.26,218.17,233.7,109.61l-.13-.31H198.82v7.27h5.58a6.33,6.33,0,0,1,6.33,6.4l-1,109.34a6.32,6.32,0,0,1-6.2,6.28l-5.71.06v7.23h33.82v-7.22l-3.48-.07a6.37,6.37,0,0,1-6.21-6.34v-103l48.61,116.56a4.49,4.49,0,0,0,8.28,0l47.5-114L327,232.24a6.35,6.35,0,0,1-6.26,6.38l-3.57,0v7.23h39.58v-7.23l-5.42,0a6.36,6.36,0,0,1-6.26-6.31L344.75,123a6.36,6.36,0,0,1,6.24-6.36l5.78-.05V109.3H323Z"/><path class="cls-1" d="M589.83,236.92a5.86,5.86,0,0,1-1.69-4.39V179c0-10.17-3-18.21-9-23.9s-14.11-8.56-24.27-8.56c-14.34,0-25.6,5.8-33.48,17.23a.64.64,0,0,1-.65.27.63.63,0,0,1-.52-.48l-3.7-14.31h-6.19l-15.94,9.12v5h4.11a6.69,6.69,0,0,1,4.61,1.52,5.86,5.86,0,0,1,1.67,4.57v63.1a5.81,5.81,0,0,1-6.08,6.09h-4v7.27h36.64v-7.27h-4a5.81,5.81,0,0,1-6.09-6.09V190.77A38.75,38.75,0,0,1,524.75,175,31.24,31.24,0,0,1,535,162.31,26.59,26.59,0,0,1,551,157.37c7,0,12.27,2.21,15.58,6.58s5,10.11,5,16.94v51.64a5.81,5.81,0,0,1-6.08,6.09h-4v7.27h36.64v-7.27h-4a5.85,5.85,0,0,1-4.39-1.7"/><path class="cls-1" d="M925.56,117.49a71.59,71.59,0,0,0-33.94-8.19h-48v7.27h4.65a7.84,7.84,0,0,1,7.25,7.25V231.37a7,7,0,0,1-2.28,5,6.86,6.86,0,0,1-5,2.28h-4.65v7.27h48a71.59,71.59,0,0,0,33.94-8.19,61.82,61.82,0,0,0,24.5-23.63c6-10.23,9.08-22.5,9.08-36.48s-3-26.24-9.08-36.47a61.89,61.89,0,0,0-24.5-23.63m14.37,60.1c0,12.77-2.29,23.64-6.82,32.31s-10.54,15.17-17.91,19.37a48.71,48.71,0,0,1-24.35,6.32h-9.69a6.85,6.85,0,0,1-5-2.27,7,7,0,0,1-2.28-5V126.84a7.84,7.84,0,0,1,7.25-7.24h9.69a48.71,48.71,0,0,1,24.35,6.32c7.37,4.2,13.39,10.71,17.91,19.36s6.82,19.55,6.82,32.31"/><path class="cls-1" d="M1072.28,184.82c-4.36-5.06-12.86-9.37-22.93-11.67,13.84-6.87,20.86-16.64,20.86-29.07a31.35,31.35,0,0,0-5.41-18.1,36,36,0,0,0-15.22-12.28,55.05,55.05,0,0,0-22.68-4.4H973v7.27h4.27a7.84,7.84,0,0,1,7.25,7.25V231.37a6.94,6.94,0,0,1-2.28,5,6.82,6.82,0,0,1-5,2.28h-4.65v7.27h58.5a66.22,66.22,0,0,0,24.69-4.49,40.77,40.77,0,0,0,17.84-13.24c4.37-5.81,6.59-12.91,6.59-21.12a33,33,0,0,0-8-22.22m-67,48.5a7,7,0,0,1-2.28-5V180h27.78c9.76,0,17.34,2.53,22.51,7.51S1061,199.08,1061,207a29.54,29.54,0,0,1-3.43,13.81,26.83,26.83,0,0,1-10.27,10.65c-4.55,2.71-10.13,4.09-16.6,4.09h-20.53a6.85,6.85,0,0,1-5-2.27M1003,169.73V126.84a7.84,7.84,0,0,1,7.25-7.24h13.21c9.49,0,16.54,2.36,20.94,7s6.64,10.73,6.64,18.06c0,7.58-2.07,13.72-6.16,18.26s-10.31,6.8-18.52,6.8Z"/><path class="cls-1" d="M450.32,152.85a54.76,54.76,0,0,0-51.23,0,47.32,47.32,0,0,0-18.3,18,56.14,56.14,0,0,0,0,53.38,47.32,47.32,0,0,0,18.3,18,54.8,54.8,0,0,0,51.23,0,47.25,47.25,0,0,0,18.31-18,56.14,56.14,0,0,0,0-53.38,47.35,47.35,0,0,0-18.31-18m7.4,44.7c0,12.34-3,22.27-9,29.51s-14,10.86-24,10.86-18.08-3.66-24-10.86-9-17.16-9-29.51,3-22.28,9-29.52,14-10.85,24-10.85,18.08,3.65,24,10.85,9,17.17,9,29.52"/><path class="cls-1" d="M803.26,152.85a54.78,54.78,0,0,0-51.24,0,47.32,47.32,0,0,0-18.3,18,56.14,56.14,0,0,0,0,53.38,47.32,47.32,0,0,0,18.3,18,54.82,54.82,0,0,0,51.24,0,47.23,47.23,0,0,0,18.3-18,56.14,56.14,0,0,0,0-53.38,47.32,47.32,0,0,0-18.3-18m7.39,44.7c0,12.34-3,22.27-9,29.51s-14,10.86-24,10.86-18.08-3.66-24-10.86-9-17.16-9-29.51,3-22.28,9-29.52,14-10.85,24-10.85,18.08,3.65,24,10.85,9,17.17,9,29.52"/><path class="cls-1" d="M660.8,146.49a47.19,47.19,0,0,0-21.87,5.09,39.58,39.58,0,0,0-15.5,13.86,35.16,35.16,0,0,0-5.61,19.2,33.9,33.9,0,0,0,4.29,17A37.51,37.51,0,0,0,633.52,214l-14.26,19.38a7.89,7.89,0,0,0,6.36,12.56h4.09a30.84,30.84,0,0,0-9.4,9.66,25.76,25.76,0,0,0-3.9,13.45c0,8.58,3.8,15.66,11.28,21s17.83,8,30.89,8a75.13,75.13,0,0,0,25.75-4.35,46,46,0,0,0,19.33-12.83A29.9,29.9,0,0,0,711,260.74c0-8.18-3-14-10-19.58-6-4.73-15.39-7.24-27.1-7.24h-40a.25.25,0,0,1-.23-.13.25.25,0,0,1,0-.26l10.38-14a37.1,37.1,0,0,0,7.69,2.58,40.81,40.81,0,0,0,8,.72,49.15,49.15,0,0,0,22.58-5.09,40.14,40.14,0,0,0,15.69-13.86,34.61,34.61,0,0,0,5.72-19.2c0-7.42-3.56-20.93-13.38-27.82a.07.07,0,0,1,.09-.06L712,159.17v-9.86H677.59a50.93,50.93,0,0,0-16.79-2.82m12,62.57h0a25.31,25.31,0,0,1-12,3.06A24.85,24.85,0,0,1,643.22,205c-5-4.71-7.49-11.56-7.49-20.37s2.52-15.67,7.49-20.38a24.89,24.89,0,0,1,17.58-7.11,25.31,25.31,0,0,1,12,3.06,24.27,24.27,0,0,1,9.38,9.18c2.42,4.07,3.65,9.2,3.65,15.25s-1.23,11.18-3.65,15.24a24.13,24.13,0,0,1-9.38,9.18m-27.16,36.83h27.11c7.54,0,12.32,1.46,15.54,4.73a17.26,17.26,0,0,1,4.78,12.54A21.63,21.63,0,0,1,684.45,281c-5.79,4.54-13.61,6.84-23.25,6.84-8.44,0-15.36-1.86-20.55-5.54s-7.74-9.06-7.74-16.1a21.28,21.28,0,0,1,3.64-12.1,23.4,23.4,0,0,1,9.13-8.19"/><path class="cls-1" d="M1100.64,244.68A12.31,12.31,0,0,1,1096,240a13.13,13.13,0,0,1,0-12.89,12.24,12.24,0,0,1,4.67-4.64,14,14,0,0,1,13.42,0,12.34,12.34,0,0,1,4.68,4.64,13.2,13.2,0,0,1,0,12.89,12.41,12.41,0,0,1-4.68,4.64,14.09,14.09,0,0,1-13.42,0m12.28-1.48a10.18,10.18,0,0,0,3.88-3.93,12.13,12.13,0,0,0,0-11.35,10.13,10.13,0,0,0-3.88-3.94,11.63,11.63,0,0,0-11.14,0,10.2,10.2,0,0,0-3.88,3.94,12.2,12.2,0,0,0,0,11.35,10.24,10.24,0,0,0,3.88,3.93,11.56,11.56,0,0,0,11.14,0m-11-3.49v-.88l.18-.14h.6a.74.74,0,0,0,.51-.23.7.7,0,0,0,.22-.51v-9.28a.69.69,0,0,0-.22-.5.7.7,0,0,0-.51-.23h-.6l-.18-.14v-.88l.18-.14h5.2a5.73,5.73,0,0,1,3.51,1,3.31,3.31,0,0,1,1.3,2.81,3.38,3.38,0,0,1-1,2.44,4.24,4.24,0,0,1-2.55,1.25l1.2.35,2.32,3.66a.79.79,0,0,0,.66.42h.6l.14.14v.88l-.14.14h-3.06l-.21-.14-3.23-5.38h-.77V238a.67.67,0,0,0,.23.51.71.71,0,0,0,.51.23h.59l.18.14v.88l-.18.14h-5.3Zm5-6.54a2.52,2.52,0,0,0,1.89-.67,2.59,2.59,0,0,0,.67-1.93,2.8,2.8,0,0,0-.63-1.91,2.14,2.14,0,0,0-1.69-.72h-.38a.79.79,0,0,0-.74.73v4.5Z"/></svg>